<svg width="630" height="440" viewBox="0 0 630 440" fill="none" xmlns="http://www.w3.org/2000/svg">
<path d="M178.761 161.6C191.045 161.6 200.147 164.856 206.067 171.368C212.135 177.88 215.169 187.426 215.169 200.006V220.208C215.169 232.788 212.135 242.334 206.067 248.846C200.147 255.358 191.045 258.614 178.761 258.614H167.217V317H142.797V161.6H178.761ZM167.217 183.8V236.414H178.761C182.609 236.414 185.569 235.378 187.641 233.306C189.713 231.234 190.749 227.386 190.749 221.762V198.452C190.749 192.828 189.713 188.98 187.641 186.908C185.569 184.836 182.609 183.8 178.761 183.8H167.217Z" fill="white"/>
<path d="M226.264 294.8C227.596 294.948 229.002 295.022 230.482 295.022C231.962 295.022 233.368 295.022 234.7 295.022C236.624 295.022 238.4 294.8 240.028 294.356C241.804 293.912 243.284 293.098 244.468 291.914C245.8 290.73 246.762 289.028 247.354 286.808C248.094 284.588 248.464 281.776 248.464 278.372L212.944 161.6H237.364L264.226 252.62L286.426 161.6H310.846L278.878 276.152C276.066 286.808 273.18 295.022 270.22 300.794C267.408 306.418 264.374 310.488 261.118 313.004C257.862 315.372 254.31 316.704 250.462 317C246.762 317.296 242.618 317.444 238.03 317.444C235.81 317.444 233.812 317.444 232.036 317.444C230.26 317.444 228.336 317.296 226.264 317V294.8Z" fill="white"/>
<path d="M339.692 317H315.272V161.6H339.692V228.2H367.442V161.6H392.306V317H367.442V250.4H339.692V317Z" fill="white"/>
<path d="M427.772 227.09H461.294V249.29H427.772V294.8H469.952V317H403.352V161.6H469.952V183.8H427.772V227.09Z" fill="white"/>
<path d="M471.114 161.6H546.594V183.8H521.064V317H496.644V183.8H471.114V161.6Z" fill="white"/>
<path d="M629.922 317H605.28L601.062 288.806H571.092L566.874 317H544.452L569.316 161.6H605.058L629.922 317ZM574.2 267.716H597.732L585.966 189.128L574.2 267.716Z" fill="white"/>
<path d="M175.78 352.173C175.78 347.097 174.916 343.695 173.188 341.967C171.568 340.131 169.354 339.213 166.546 339.213C163.738 339.213 161.47 340.077 159.742 341.805C158.122 343.425 157.312 346.287 157.312 350.391V362.541H140.464V351.525C140.464 342.345 142.678 335.325 147.106 330.465C151.642 325.497 158.284 323.013 167.032 323.013C175.78 323.013 182.368 325.497 186.796 330.465C191.332 335.325 193.6 342.345 193.6 351.525C193.6 357.681 192.628 363.243 190.684 368.211C188.848 373.179 186.526 377.715 183.718 381.819C180.91 385.923 177.886 389.703 174.646 393.159C171.406 396.507 168.49 399.747 165.898 402.879C163.306 405.903 161.254 408.927 159.742 411.951C158.23 414.975 157.744 418.161 158.284 421.509H191.98V437.709H140.464V423.777C140.464 418.269 141.328 413.409 143.056 409.197C144.784 404.985 146.944 401.151 149.536 397.695C152.236 394.131 155.098 390.837 158.122 387.813C161.146 384.681 163.954 381.387 166.546 377.931C169.246 374.475 171.46 370.695 173.188 366.591C174.916 362.487 175.78 357.681 175.78 352.173Z" fill="#EBB86B"/>
<path d="M216.197 411.627C216.197 415.731 217.007 418.647 218.627 420.375C220.355 421.995 222.623 422.805 225.431 422.805C228.239 422.805 230.453 421.995 232.073 420.375C233.801 418.647 234.665 415.731 234.665 411.627V350.391C234.665 346.287 233.801 343.425 232.073 341.805C230.453 340.077 228.239 339.213 225.431 339.213C222.623 339.213 220.355 340.077 218.627 341.805C217.007 343.425 216.197 346.287 216.197 350.391V411.627ZM198.377 351.525C198.377 342.345 200.699 335.325 205.343 330.465C209.987 325.497 216.683 323.013 225.431 323.013C234.179 323.013 240.875 325.497 245.519 330.465C250.163 335.325 252.485 342.345 252.485 351.525V410.493C252.485 419.673 250.163 426.747 245.519 431.715C240.875 436.575 234.179 439.005 225.431 439.005C216.683 439.005 209.987 436.575 205.343 431.715C200.699 426.747 198.377 419.673 198.377 410.493V351.525Z" fill="#EBB86B"/>
<path d="M294.521 352.173C294.521 347.097 293.657 343.695 291.929 341.967C290.309 340.131 288.095 339.213 285.287 339.213C282.479 339.213 280.211 340.077 278.483 341.805C276.863 343.425 276.053 346.287 276.053 350.391V362.541H259.205V351.525C259.205 342.345 261.419 335.325 265.847 330.465C270.383 325.497 277.025 323.013 285.773 323.013C294.521 323.013 301.109 325.497 305.537 330.465C310.073 335.325 312.341 342.345 312.341 351.525C312.341 357.681 311.369 363.243 309.425 368.211C307.589 373.179 305.267 377.715 302.459 381.819C299.651 385.923 296.627 389.703 293.387 393.159C290.147 396.507 287.231 399.747 284.639 402.879C282.047 405.903 279.995 408.927 278.483 411.951C276.971 414.975 276.485 418.161 277.025 421.509H310.721V437.709H259.205V423.777C259.205 418.269 260.069 413.409 261.797 409.197C263.525 404.985 265.685 401.151 268.277 397.695C270.977 394.131 273.839 390.837 276.863 387.813C279.887 384.681 282.695 381.387 285.287 377.931C287.987 374.475 290.201 370.695 291.929 366.591C293.657 362.487 294.521 357.681 294.521 352.173Z" fill="#EBB86B"/>
<path d="M352.92 352.173C352.92 347.097 352.056 343.695 350.328 341.967C348.708 340.131 346.494 339.213 343.686 339.213C340.878 339.213 338.61 340.077 336.882 341.805C335.262 343.425 334.452 346.287 334.452 350.391V357.681H317.604V351.525C317.604 342.345 319.818 335.325 324.246 330.465C328.782 325.497 335.424 323.013 344.172 323.013C352.92 323.013 359.508 325.497 363.936 330.465C368.472 335.325 370.74 342.345 370.74 351.525V354.441C370.74 366.537 366.582 374.313 358.266 377.769C362.802 379.713 365.988 382.737 367.824 386.841C369.768 390.837 370.74 395.751 370.74 401.583V410.493C370.74 419.673 368.472 426.747 363.936 431.715C359.508 436.575 352.92 439.005 344.172 439.005C335.424 439.005 328.782 436.575 324.246 431.715C319.818 426.747 317.604 419.673 317.604 410.493V401.097H334.452V411.627C334.452 415.731 335.262 418.647 336.882 420.375C338.61 421.995 340.878 422.805 343.686 422.805C346.494 422.805 348.708 421.941 350.328 420.213C352.056 418.485 352.92 415.083 352.92 410.007V401.097C352.92 395.805 352.002 392.079 350.166 389.919C348.33 387.759 345.36 386.679 341.256 386.679H335.262V370.479H342.228C345.576 370.479 348.168 369.615 350.004 367.887C351.948 366.159 352.92 363.027 352.92 358.491V352.173Z" fill="#EBB86B"/>
<path d="M25.3 156H0.880005V0.600098H77.914V156H53.05V22.8001H25.3V156Z" fill="white"/>
<path d="M124.924 0.600098C137.208 0.600098 146.31 3.8561 152.23 10.3681C158.298 16.8801 161.332 26.4261 161.332 39.0061V59.2081C161.332 71.7881 158.298 81.3341 152.23 87.8461C146.31 94.3581 137.208 97.6141 124.924 97.6141H113.38V156H88.9602V0.600098H124.924ZM113.38 22.8001V75.4141H124.924C128.772 75.4141 131.732 74.3781 133.804 72.3061C135.876 70.2341 136.912 66.3861 136.912 60.7621V37.4521C136.912 31.8281 135.876 27.9801 133.804 25.9081C131.732 23.8361 128.772 22.8001 124.924 22.8001H113.38Z" fill="white"/>
<path d="M190.187 66.0901H223.709V88.2901H190.187V133.8H232.367V156H165.767V0.600098H232.367V22.8001H190.187V66.0901Z" fill="white"/>
<path d="M292.137 110.934L308.787 0.600098H342.753V156H319.665V44.5561L302.793 156H279.705L261.501 46.1101V156H240.189V0.600098H274.155L292.137 110.934Z" fill="white"/>
<path d="M378.937 156H353.851V0.600098H375.607V93.6181L400.693 0.600098H431.329V156H409.351V43.4461L378.937 156Z" fill="white"/>
<path d="M477.663 22.8001C473.371 22.8001 470.189 24.0581 468.117 26.5741C466.193 29.0901 465.231 33.1601 465.231 38.7841V54.1021C465.231 60.3181 466.489 64.6101 469.005 66.9781C471.669 69.3461 475.295 70.5301 479.883 70.5301H489.429V22.8001H477.663ZM437.925 156C439.109 153.04 439.849 150.154 440.145 147.342C440.441 144.382 440.589 140.978 440.589 137.13V113.154C440.589 105.014 441.699 98.1321 443.919 92.5081C446.287 86.7361 450.579 82.5921 456.795 80.0761C446.139 75.0441 440.811 64.5361 440.811 48.5521V36.3421C440.811 24.3541 443.623 15.4001 449.247 9.4801C455.019 3.5601 464.269 0.600098 476.997 0.600098H513.849V156H489.429V92.7301H480.993C475.369 92.7301 471.299 94.2101 468.783 97.1701C466.267 100.13 465.009 105.236 465.009 112.488V136.908C465.009 140.016 464.935 142.606 464.787 144.678C464.787 146.75 464.639 148.452 464.343 149.784C464.195 151.116 463.973 152.226 463.677 153.114C463.381 154.002 463.085 154.964 462.789 156H437.925Z" fill="white"/>
</svg>
