<svg width="134" height="129" viewBox="0 0 134 129" fill="none" xmlns="http://www.w3.org/2000/svg">
<path d="M6.3791 40.5798H0V0H20.1232V40.5798H13.6281V5.79712H6.3791V40.5798Z" fill="white"/>
<path d="M32.4034 0C35.6123 0 37.9899 0.850245 39.5364 2.55073C41.1215 4.25122 41.914 6.74398 41.914 10.029V15.3044C41.914 18.5894 41.1215 21.0822 39.5364 22.7827C37.9899 24.4832 35.6123 25.3334 32.4034 25.3334H29.3878V40.5798H23.0087V0H32.4034ZM29.3878 5.79712V19.5363H32.4034C33.4086 19.5363 34.1818 19.2658 34.723 18.7247C35.2643 18.1836 35.5349 17.1788 35.5349 15.7102V9.62322C35.5349 8.15461 35.2643 7.14978 34.723 6.60872C34.1818 6.06765 33.4086 5.79712 32.4034 5.79712H29.3878Z" fill="white"/>
<path d="M49.4516 17.1015H58.2084V22.8986H49.4516V34.7827H60.47V40.5798H43.0725V0H60.47V5.79712H49.4516V17.1015Z" fill="white"/>
<path d="M76.0834 28.8117L80.4328 0H89.3055V40.5798H83.2744V11.4783L78.867 40.5798H72.8359L68.0806 11.8841V40.5798H62.5133V0H71.3861L76.0834 28.8117Z" fill="white"/>
<path d="M98.7578 40.5798H92.2047V0H97.8879V24.2899L104.441 0H112.444V40.5798H106.703V11.1884L98.7578 40.5798Z" fill="white"/>
<path d="M124.547 5.79712C123.426 5.79712 122.595 6.12562 122.054 6.78263C121.551 7.43964 121.3 8.50244 121.3 9.97105V13.9711C121.3 15.5942 121.628 16.715 122.286 17.3334C122.982 17.9517 123.929 18.2609 125.127 18.2609H127.621V5.79712H124.547ZM114.167 40.5798C114.476 39.8069 114.669 39.0533 114.747 38.319C114.824 37.546 114.863 36.6571 114.863 35.6523V29.3914C114.863 27.2658 115.153 25.4687 115.733 24.0001C116.351 22.4928 117.472 21.4107 119.096 20.7537C116.313 19.4397 114.921 16.6957 114.921 12.5218V9.33336C114.921 6.20292 115.655 3.86475 117.124 2.31885C118.632 0.772949 121.049 0 124.373 0H134V40.5798H127.621V24.058H125.417C123.948 24.058 122.885 24.4445 122.228 25.2175C121.57 25.9904 121.242 27.3238 121.242 29.2175V35.5943C121.242 36.4059 121.222 37.0822 121.184 37.6233C121.184 38.1644 121.145 38.6088 121.068 38.9566C121.029 39.3045 120.971 39.5943 120.894 39.8262C120.817 40.0581 120.739 40.3093 120.662 40.5798H114.167Z" fill="white"/>
<path d="M9.39467 43.9781C12.6035 43.9781 14.9812 44.8284 16.5277 46.5289C18.1128 48.2294 18.9053 50.7221 18.9053 54.0071V59.2825C18.9053 62.5676 18.1128 65.0603 16.5277 66.7608C14.9812 68.4613 12.6035 69.3115 9.39467 69.3115H6.3791V84.558H0V43.9781H9.39467ZM6.3791 49.7753V63.5144H9.39467C10.3999 63.5144 11.1731 63.2439 11.7143 62.7028C12.2556 62.1618 12.5262 61.1569 12.5262 59.6883V53.6014C12.5262 52.1328 12.2556 51.1279 11.7143 50.5868C11.1731 50.0458 10.3999 49.7753 9.39467 49.7753H6.3791Z" fill="white"/>
<path d="M21.8036 78.7608C22.1515 78.7995 22.5188 78.8188 22.9054 78.8188C23.292 78.8188 23.6593 78.8188 24.0072 78.8188C24.5098 78.8188 24.9738 78.7608 25.399 78.6449C25.863 78.529 26.2496 78.3164 26.5589 78.0072C26.9068 77.698 27.1581 77.2536 27.3128 76.6739C27.5061 76.0942 27.6027 75.3599 27.6027 74.471L18.324 43.9781H24.7031L31.7202 67.7463L37.5193 43.9781H43.8984L35.5476 73.8913C34.813 76.6739 34.0592 78.8188 33.2859 80.3261C32.5514 81.7947 31.7588 82.8575 30.9083 83.5145C30.0577 84.1328 29.1299 84.4807 28.1247 84.558C27.1581 84.6353 26.0756 84.6739 24.8771 84.6739C24.2972 84.6739 23.7753 84.6739 23.3113 84.6739C22.8474 84.6739 22.3448 84.6353 21.8036 84.558V78.7608Z" fill="white"/>
<path d="M51.4337 84.558H45.0546V43.9781H51.4337V61.3695H58.6827V43.9781H65.1778V84.558H58.6827V67.1666H51.4337V84.558Z" fill="white"/>
<path d="M74.4424 61.0796H83.1992V66.8768H74.4424V78.7608H85.4609V84.558H68.0633V43.9781H85.4609V49.7753H74.4424V61.0796Z" fill="white"/>
<path d="M85.7644 43.9781H105.482V49.7753H98.8126V84.558H92.4335V49.7753H85.7644V43.9781Z" fill="white"/>
<path d="M127.249 84.558H120.812L119.71 77.1956H111.881L110.779 84.558H104.922L111.417 43.9781H120.754L127.249 84.558ZM112.693 71.6884H118.84L115.767 51.1666L112.693 71.6884Z" fill="white"/>
<path d="M12.6422 97.9275C12.6422 96.1111 12.3329 94.8937 11.7143 94.2753C11.1344 93.6183 10.3419 93.2898 9.33668 93.2898C8.33149 93.2898 7.5196 93.599 6.90102 94.2173C6.32111 94.797 6.03115 95.8212 6.03115 97.2898V101.638H0V97.6956C0 94.4106 0.792554 91.8985 2.37766 90.1593C4.00143 88.3816 6.3791 87.4927 9.51065 87.4927C12.6422 87.4927 15.0005 88.3816 16.5857 90.1593C18.2094 91.8985 19.0213 94.4106 19.0213 97.6956C19.0213 99.8985 18.6734 101.889 17.9775 103.667C17.3202 105.444 16.489 107.068 15.4838 108.536C14.4786 110.005 13.3961 111.357 12.2363 112.594C11.0764 113.792 10.0326 114.952 9.10471 116.072C8.17684 117.155 7.44228 118.237 6.90102 119.319C6.35977 120.401 6.18579 121.541 6.3791 122.739H18.4414V128.536H0V123.551C0 121.58 0.309289 119.841 0.927869 118.333C1.54645 116.826 2.31967 115.454 3.24754 114.217C4.21407 112.942 5.23859 111.763 6.32111 110.681C7.40362 109.56 8.40881 108.382 9.33668 107.145C10.3032 105.908 11.0958 104.556 11.7143 103.087C12.3329 101.618 12.6422 99.8985 12.6422 97.9275Z" fill="#EBB86B"/>
<path d="M27.1103 119.203C27.1103 120.672 27.4002 121.715 27.9801 122.333C28.5987 122.913 29.4106 123.203 30.4158 123.203C31.421 123.203 32.2135 122.913 32.7935 122.333C33.412 121.715 33.7213 120.672 33.7213 119.203V97.2898C33.7213 95.8212 33.412 94.797 32.7935 94.2173C32.2135 93.599 31.421 93.2898 30.4158 93.2898C29.4106 93.2898 28.5987 93.599 27.9801 94.2173C27.4002 94.797 27.1103 95.8212 27.1103 97.2898V119.203ZM20.7312 97.6956C20.7312 94.4106 21.5624 91.8985 23.2248 90.1593C24.8872 88.3816 27.2842 87.4927 30.4158 87.4927C33.5473 87.4927 35.9443 88.3816 37.6068 90.1593C39.2692 91.8985 40.1004 94.4106 40.1004 97.6956V118.797C40.1004 122.082 39.2692 124.614 37.6068 126.391C35.9443 128.13 33.5473 129 30.4158 129C27.2842 129 24.8872 128.13 23.2248 126.391C21.5624 124.614 20.7312 122.082 20.7312 118.797V97.6956Z" fill="#EBB86B"/>
<path d="M55.1484 97.9275C55.1484 96.1111 54.8391 94.8937 54.2205 94.2753C53.6406 93.6183 52.848 93.2898 51.8429 93.2898C50.8377 93.2898 50.0258 93.599 49.4072 94.2173C48.8273 94.797 48.5373 95.8212 48.5373 97.2898V101.638H42.5062V97.6956C42.5062 94.4106 43.2987 91.8985 44.8838 90.1593C46.5076 88.3816 48.8853 87.4927 52.0168 87.4927C55.1484 87.4927 57.5067 88.3816 59.0918 90.1593C60.7156 91.8985 61.5275 94.4106 61.5275 97.6956C61.5275 99.8985 61.1795 101.889 60.4836 103.667C59.8264 105.444 58.9952 107.068 57.99 108.536C56.9848 110.005 55.9023 111.357 54.7424 112.594C53.5826 113.792 52.5388 114.952 51.6109 116.072C50.683 117.155 49.9485 118.237 49.4072 119.319C48.8659 120.401 48.692 121.541 48.8853 122.739H60.9476V128.536H42.5062V123.551C42.5062 121.58 42.8155 119.841 43.434 118.333C44.0526 116.826 44.8258 115.454 45.7537 114.217C46.7202 112.942 47.7448 111.763 48.8273 110.681C49.9098 109.56 50.915 108.382 51.8429 107.145C52.8094 105.908 53.6019 104.556 54.2205 103.087C54.8391 101.618 55.1484 99.8985 55.1484 97.9275Z" fill="#EBB86B"/>
<path d="M76.0535 97.9275C76.0535 96.1111 75.7442 94.8937 75.1256 94.2753C74.5457 93.6183 73.7532 93.2898 72.748 93.2898C71.7428 93.2898 70.9309 93.599 70.3123 94.2173C69.7324 94.797 69.4425 95.8212 69.4425 97.2898V99.8985H63.4113V97.6956C63.4113 94.4106 64.2039 91.8985 65.789 90.1593C67.4127 88.3816 69.7904 87.4927 72.922 87.4927C76.0535 87.4927 78.4118 88.3816 79.997 90.1593C81.6207 91.8985 82.4326 94.4106 82.4326 97.6956V98.7391C82.4326 103.068 80.9442 105.85 77.9672 107.087C79.591 107.783 80.7315 108.865 81.3888 110.333C82.0847 111.763 82.4326 113.522 82.4326 115.609V118.797C82.4326 122.082 81.6207 124.614 79.997 126.391C78.4118 128.13 76.0535 129 72.922 129C69.7904 129 67.4127 128.13 65.789 126.391C64.2039 124.614 63.4113 122.082 63.4113 118.797V115.435H69.4425V119.203C69.4425 120.672 69.7324 121.715 70.3123 122.333C70.9309 122.913 71.7428 123.203 72.748 123.203C73.7532 123.203 74.5457 122.894 75.1256 122.275C75.7442 121.657 76.0535 120.44 76.0535 118.623V115.435C76.0535 113.541 75.7249 112.208 75.0677 111.435C74.4104 110.662 73.3472 110.275 71.8781 110.275H69.7324V104.478H72.2261C73.4246 104.478 74.3524 104.169 75.0097 103.551C75.7056 102.932 76.0535 101.812 76.0535 100.188V97.9275Z" fill="#EBB86B"/>
</svg>
