<svg width="145" height="145" viewBox="0 0 145 145" fill="none" xmlns="http://www.w3.org/2000/svg">
<g clip-path="url(#clip0_464_161)">
<mask id="mask0_464_161" style="mask-type:alpha" maskUnits="userSpaceOnUse" x="1" y="1" width="143" height="144">
<path d="M72.4931 144.103C111.973 144.103 143.978 112.098 143.978 72.6181C143.978 33.1379 111.973 1.13281 72.4931 1.13281C33.0129 1.13281 1.00781 33.1379 1.00781 72.6181C1.00781 112.098 33.0129 144.103 72.4931 144.103Z" fill="#EBB86B"/>
</mask>
<g mask="url(#mask0_464_161)">
<path d="M72.226 116.595C72.3146 117.198 71.9442 118.85 70.9343 120.499C69.6422 122.607 68.1019 122.548 67.5041 122.32C69.5875 121.966 71.0477 119.445 72.226 116.595ZM117.783 56.8709C115.927 61.3186 112.602 65.3277 108.415 68.1649C104.926 70.5256 100.979 71.7777 97.2624 71.7777C89.8135 71.7777 86.2445 67.2247 84.7591 63.81C83.5554 61.0403 82.9115 59.5353 82.9115 59.5353C82.7894 59.2487 82.3854 59.2654 82.2761 59.5562C81.4554 61.778 80.1212 64.0082 78.3326 66.057C78.1896 66.2214 78.2484 66.3857 78.3496 66.4869C78.3496 66.4869 90.3772 76.5919 91.0297 77.1358C91.6777 77.6837 91.5347 78.6324 90.9117 79.0455C90.4909 79.3238 79.9276 86.326 79.9276 86.326C79.5236 86.5959 79.0102 86.5832 78.5516 86.2965C78.5516 86.2965 77.8024 85.8119 77.3689 85.5293C76.9355 85.2469 76.5356 84.918 76.3379 84.7074L68.7921 76.6848C68.6784 76.5624 68.4891 76.5413 68.3502 76.6342L65.1264 78.8178C65.0043 78.9023 64.9539 79.0582 65.0043 79.1973L69.802 92.0593C69.9747 92.519 69.8063 93.0291 69.398 93.303L64.1373 96.7726C64.0406 96.836 63.9816 96.9453 63.9816 97.0593V97.4768C63.9816 97.6917 64.1544 97.8433 64.3647 97.8181C68.8257 97.2532 73.2319 96.0433 75.5509 96.0433C76.6409 96.0433 77.8276 96.1486 78.1181 97.405C78.299 98.185 78.3369 99.4538 78.2359 100.225C78.1685 100.727 78.0423 101.081 77.794 101.498C77.7055 101.646 77.7266 101.84 77.8571 101.958C79.2837 103.286 82.1835 103.939 84.3549 104.428C85.5627 104.702 86.6065 104.934 87.2251 105.233C87.5113 105.368 87.8817 105.68 88.0333 106.384C88.2226 107.266 87.9827 108.602 87.6713 109.019C87.3851 109.403 86.535 109.609 85.4872 109.677C85.3188 109.69 85.1799 109.824 85.1715 109.997L85.1631 110.098C85.1547 110.259 85.2557 110.402 85.407 110.448C86.939 110.912 88.3826 111.747 89.5736 112.881C91.6777 114.887 92.8351 117.687 92.8351 120.768C92.8351 124.348 90.5204 128.049 86.6444 128.049C86.2824 128.049 85.8911 128.011 85.4828 127.935C85.3104 127.901 85.1336 127.931 84.982 128.024C83.8711 128.677 82.6968 129.01 81.5353 129.01C80.8746 129.01 80.2181 128.901 79.5826 128.686C78.5432 128.331 77.6213 127.699 76.9103 126.881C76.8134 126.772 76.6618 126.814 76.6534 126.953C76.6114 127.682 76.1947 128.31 75.6139 128.618C75.4962 128.681 75.4287 128.808 75.4415 128.943C75.4794 129.293 75.5509 129.917 75.5509 129.954C75.5509 130.102 75.5465 130.287 75.2184 130.49C75.1131 130.553 75.0416 130.671 75.0459 130.793L75.5549 152.677H73.8297L73.2403 129.997C73.2362 129.836 73.1225 129.702 72.9668 129.668C72.9078 129.655 72.849 129.643 72.7859 129.63C72.5712 129.588 72.3692 129.756 72.3776 129.976L72.9248 152.677H72.2008L72.1924 152.323C72.1884 152.205 72.0999 152.108 71.9861 152.091C71.9442 152.087 71.9022 152.078 71.86 152.074C71.7127 152.049 71.5781 152.163 71.5781 152.314L71.5822 152.681H70.8585L70.4921 129.609C70.4881 129.436 70.3576 129.288 70.1851 129.271C69.9915 129.255 69.7641 129.234 69.5789 129.212C69.3769 129.196 69.2044 129.356 69.2088 129.558L69.5285 152.677H68.8045L68.7961 152.129C68.7921 151.948 68.6532 151.8 68.4764 151.792C68.3123 151.783 68.1482 151.771 67.9798 151.754C67.7778 151.733 67.601 151.893 67.601 152.095L67.6051 152.669C67.601 152.673 67.601 152.673 67.5967 152.677H66.8855L66.6583 129.322C66.6583 129.141 66.5153 128.989 66.3342 128.981C66.0101 128.968 65.6819 128.955 65.3451 128.943C65.1516 128.934 64.9918 129.09 64.9918 129.284C65.0129 132.239 65.1516 152.673 65.1516 152.673H64.4278L64.4235 151.914C64.4235 151.716 64.2554 151.56 64.0618 151.577C63.6072 151.606 63.1147 151.606 62.6433 151.56C62.4413 151.543 62.2732 151.699 62.2732 151.901V152.673H61.5492C61.5492 152.673 61.5197 132.088 61.5156 129.2C61.5156 129.014 61.3683 128.867 61.1788 128.867C60.8339 128.867 60.2994 128.867 59.9542 128.867C59.769 128.867 59.6217 129.014 59.6217 129.2H59.6176V129.204C59.6133 132.092 59.5838 152.677 59.5838 152.677H58.8601V151.906C58.8601 151.703 58.6874 151.547 58.4897 151.564C58.0183 151.606 57.5258 151.611 57.0715 151.581C56.8736 151.568 56.7095 151.724 56.7095 151.918L56.7052 152.677H55.9815C55.9815 152.677 56.1244 132.244 56.1412 129.288C56.1412 129.094 55.9814 128.938 55.7879 128.947C55.4511 128.96 55.1229 128.972 54.7988 128.985C54.6179 128.993 54.4747 129.141 54.4747 129.326L54.2476 152.681H53.5279C53.5236 152.677 53.5236 152.677 53.5195 152.673L53.5236 152.1C53.5236 151.893 53.3511 151.733 53.1448 151.758C52.9807 151.775 52.8123 151.788 52.6482 151.796C52.4674 151.804 52.3285 151.952 52.3285 152.133L52.3201 152.681H51.5961L51.9161 129.562C51.9202 129.36 51.7477 129.2 51.5457 129.217C51.3562 129.234 51.129 129.255 50.9395 129.276C50.767 129.293 50.6325 129.436 50.6325 129.613L50.2662 152.686H49.5424L49.5465 152.319C49.5508 152.167 49.4119 152.053 49.2646 152.078C49.2227 152.087 49.1804 152.091 49.1385 152.095C49.0204 152.112 48.9322 152.209 48.9322 152.327L48.9238 152.681H48.1998L48.747 129.98C48.7513 129.761 48.5534 129.592 48.3387 129.634C48.2799 129.647 48.2168 129.659 48.1578 129.672C48.0021 129.706 47.8884 129.841 47.8843 130.001L47.2952 152.681H45.5697L46.0787 130.798C46.083 130.671 46.0156 130.557 45.9062 130.494C45.5738 130.292 45.5738 130.115 45.5738 129.959C45.5738 129.887 45.5738 129.773 45.5738 129.689C45.5738 129.537 45.4603 129.47 45.3845 129.44C43.1034 128.589 42.3754 125.929 42.6488 123.408C42.6659 123.235 42.468 123.129 42.3375 123.243C41.1296 124.293 39.5893 124.959 37.8765 125.068C37.7544 125.077 37.6367 125.111 37.5357 125.182C37.0307 125.532 35.7344 126.257 33.6301 126.257C29.1229 126.249 25.7266 122.328 25.7266 117.126C25.7266 109.162 33.7186 106.384 34.2615 106.169C34.4004 106.115 34.4886 105.976 34.4759 105.828L34.4171 105.056C34.4004 104.846 34.2783 104.795 34.131 104.766C32.5947 104.466 31.7573 104.201 31.4332 103.602C31.0755 102.94 31.2775 100.698 31.5301 100.116C31.871 99.3315 32.8346 99.1756 34.3792 99.1756C36.5677 99.1756 39.5262 99.2979 42.6109 99.2979C47.779 99.2979 52.1685 99.0954 55.8972 98.7963C56.1203 98.7792 56.2633 98.5559 56.1918 98.345L43.6379 61.5252C43.4865 61.0866 43.6463 60.5933 44.0251 60.3278L64.2762 46.0786C68.1019 43.4439 72.3357 42.7693 75.6223 44.1478C75.9085 44.2658 76.1906 43.9794 76.0685 43.6968L74.4481 39.9492C74.2504 39.4938 74.402 38.9583 74.806 38.676L83.4165 32.618C84.3719 31.9011 85.0199 32.6981 85.5754 33.3557C86.3877 34.3127 86.7118 34.6836 86.8631 35.0125C86.8631 35.0125 97.3171 58.0301 97.5443 58.5277C97.7717 59.0251 98.0032 59.3161 98.428 59.4425C99.7918 59.8388 101.37 59.4847 102.86 58.4771C105.621 56.6053 106.74 53.1612 105.461 50.4629L93.9124 26.3153C93.6893 25.8516 93.8282 25.2995 94.2533 25.0001C94.2533 25.0001 102.359 19.3005 102.813 18.9801C103.268 18.6597 103.76 18.7567 104.131 19.0813C105.494 20.2743 106.062 20.9278 106.277 21.3535L118.103 44.6876C119.769 48.0475 119.656 52.3769 117.783 56.8709ZM117.354 49.0086C117.354 49.3164 117.602 49.5609 117.905 49.5609C118.208 49.5609 118.456 49.3121 118.456 49.0086C118.456 48.7008 118.208 48.4563 117.905 48.4563C117.602 48.4563 117.354 48.7051 117.354 49.0086ZM34.5685 101.604C34.5685 101.793 34.7201 101.945 34.9094 101.945C36.0038 101.954 40.511 102.059 44.1723 102.059C61.667 102.059 69.8735 99.3821 74.3303 98.9817C74.545 98.9606 74.9617 98.8889 74.9617 98.5136C74.9617 98.1384 74.5493 98.1173 74.3303 98.1343C69.7305 98.5136 62.4121 101.208 44.1767 101.208C40.2375 101.208 37.4008 101.102 34.9137 101.094C34.7244 101.094 34.5728 101.245 34.5728 101.435V101.604H34.5685ZM32.4098 100.832C32.4853 100.811 32.5695 100.794 32.6621 100.773C32.801 100.744 32.9104 100.63 32.9272 100.491C32.9356 100.432 32.9443 100.373 32.9527 100.314C32.9819 100.141 32.8178 100.002 32.6497 100.048C32.4139 100.111 32.2162 100.225 32.1193 100.529C32.0646 100.706 32.2287 100.875 32.4098 100.832ZM32.801 101.562C32.8178 101.397 32.6621 101.267 32.5021 101.305C32.3927 101.334 32.3002 101.359 32.2246 101.385C32.0898 101.427 31.9931 101.545 31.9847 101.688C31.9804 101.777 31.9763 101.865 31.9763 101.954C31.972 102.118 32.132 102.236 32.2877 102.186C32.3635 102.16 32.4434 102.139 32.5276 102.118C32.6621 102.084 32.7631 101.962 32.7759 101.823C32.7799 101.743 32.7883 101.654 32.801 101.562ZM35.7428 124.955C35.5535 124.828 35.1157 124.917 34.9895 124.938C34.6064 125.001 34.2108 125.031 33.8026 125.031C29.8845 125.031 26.9303 121.62 26.9303 117.097C26.9303 113.159 29.4342 110.634 29.6489 110.242C29.8003 109.964 29.5815 109.841 29.2366 110.216C27.7299 111.848 26.4505 114.209 26.4505 117.122C26.4505 121.911 29.5312 125.52 33.6217 125.52C34.3541 125.52 34.9727 125.423 35.4861 125.288C35.8018 125.208 35.9323 125.081 35.7428 124.955ZM28.5757 118.471C28.8535 120.343 29.7372 121.751 30.8779 122.611C31.0799 122.762 31.3322 122.493 31.1597 122.307C30.2002 121.279 29.4342 119.968 28.9756 118.391C28.9041 118.146 28.5378 118.218 28.5757 118.471ZM44.2522 117.282C44.2522 113.374 41.6262 111.591 39.1854 111.591C37.38 111.591 35.4271 112.969 35.4271 115.2C35.4271 117.067 36.6728 118.323 37.8386 118.323C38.0617 118.323 38.2678 118.285 38.4573 118.209C38.6298 118.142 38.5751 117.881 38.3858 117.876C37.2495 117.847 36.2899 116.894 36.2899 115.2C36.2899 113.378 37.5692 112.156 39.4715 112.156C41.4748 112.156 43.6379 114.044 43.6379 117.097C43.6379 120.478 41.2896 123.024 38.1795 123.024C34.758 123.024 31.2272 120.254 31.2272 115.178C31.2272 110.103 35.3892 108.206 38.1795 108.206C41.5041 108.206 43.9955 108.627 49.6139 108.627C62.7359 108.627 67.1632 106.33 69.2927 106.33C70.9047 106.33 71.658 107.944 71.658 111.409C71.658 117.126 69.339 121.709 66.6835 121.709C66.6247 121.709 66.57 121.704 66.511 121.7C66.1996 121.675 66.0355 122.071 66.2627 122.29C66.8603 122.868 67.5588 123.188 68.3164 123.188C71.4855 123.188 74.2672 117.683 74.2672 111.409C74.2672 108.813 73.8254 103.99 70.9343 103.99C68.8424 103.99 63.6662 107.084 51.9034 107.084C43.7094 107.084 42.367 106.161 38.1795 106.161C32.7463 106.161 29.2282 110.119 29.2282 114.946C29.2282 121.059 33.4197 124.356 37.3629 124.356C41.2011 124.356 44.2522 121.299 44.2522 117.282ZM74.1998 102.304C74.1998 102.076 73.9515 102.059 73.8042 102.063C71.1739 102.148 62.5382 104.93 44.7363 104.93C41.8366 104.93 37.9691 104.77 36.2688 104.85C36.0836 104.858 35.8437 104.951 35.8565 105.149C35.8689 105.347 36.1175 105.402 36.2856 105.385C37.4767 105.267 41.9167 105.461 44.7406 105.461C62.5594 105.461 70.4082 102.839 73.7707 102.594C73.9052 102.578 74.1998 102.527 74.1998 102.304ZM73.8589 103.855C73.72 103.868 73.5811 103.884 73.4298 103.906C73.2825 103.922 73.0805 104.028 73.2573 104.209C73.4339 104.39 73.6949 104.365 73.8086 104.353C73.9431 104.336 74.1957 104.26 74.1746 104.074C74.1622 103.889 73.9642 103.847 73.8589 103.855ZM78.6862 109.622C78.9428 109.487 79.4816 109.399 80.1382 109.298C80.361 109.26 80.4915 109.024 80.4033 108.813C80.3526 108.699 80.3023 108.585 80.2517 108.475C80.1886 108.341 80.0413 108.269 79.894 108.294C78.8207 108.488 77.8528 108.556 76.8892 108.556C76.3379 108.556 75.7907 108.534 75.2268 108.501C75.0164 108.488 74.8396 108.665 74.8648 108.876C74.8691 108.901 74.8691 108.926 74.8732 108.952C74.8902 109.108 75.0121 109.234 75.1721 109.251C75.7485 109.31 77.0576 109.458 77.2804 109.597C77.0576 109.715 75.8917 109.719 75.2942 109.715C75.1006 109.715 74.9533 109.871 74.9617 110.069C74.9658 110.128 74.9658 110.183 74.9701 110.242C74.9785 110.41 75.1047 110.55 75.269 110.566C75.9632 110.642 76.6829 110.76 76.9395 110.904C76.6829 111.009 76.0054 111.026 75.3362 111.013C75.1469 111.009 74.9953 111.161 74.9996 111.35C74.9996 111.409 74.9996 111.468 74.9996 111.532C74.9996 111.705 75.1258 111.856 75.3026 111.873C76.0601 111.962 76.7755 112.093 77.0197 112.219C76.8134 112.32 76.0138 112.329 75.3026 112.316C75.1215 112.312 74.9701 112.455 74.9617 112.636C74.9574 112.699 74.9533 112.763 74.949 112.822C74.9365 113.003 75.0711 113.163 75.2519 113.18C76.1906 113.277 77.272 113.437 77.4783 113.581C77.2428 113.682 76.14 113.656 75.2016 113.627C75.0205 113.623 74.8732 113.753 74.8523 113.935C74.848 113.96 74.848 113.981 74.8439 114.007C74.8185 114.205 74.9701 114.382 75.1678 114.394C77.7602 114.542 80.1929 114.951 81.2913 115.157C81.5101 115.2 81.7078 115.023 81.6953 114.803C81.691 114.727 81.6869 114.656 81.6826 114.58C81.6699 114.411 81.5353 114.276 81.3669 114.264C80.3822 114.179 79.3468 113.981 78.8546 113.728C79.3427 113.652 80.458 113.728 81.2155 113.77C81.4259 113.783 81.5943 113.602 81.5689 113.391C81.5564 113.273 81.5396 113.155 81.5226 113.037C81.5017 112.877 81.3669 112.758 81.2071 112.75C80.563 112.721 79.4394 112.577 79.229 112.409C79.6037 112.316 80.3781 112.312 81.0051 112.291C81.2196 112.282 81.3712 112.088 81.329 111.878C81.3038 111.742 81.2743 111.608 81.245 111.473C81.2112 111.313 81.0682 111.203 80.9042 111.207C80.2812 111.211 79.4353 111.157 79.1491 111.026C79.4521 110.912 80.0919 110.849 80.6599 110.79C80.8746 110.769 81.0135 110.554 80.9545 110.347C80.9125 110.204 80.8703 110.065 80.824 109.93C80.7737 109.778 80.6304 109.685 80.4707 109.694C79.793 109.757 78.9049 109.719 78.6862 109.622ZM79.6246 107.354C79.5826 107.291 79.5404 107.232 79.5025 107.173C79.4226 107.063 79.2837 107.013 79.1491 107.046C78.2191 107.266 77.3099 107.379 76.3967 107.379C75.9507 107.379 75.5046 107.354 75.05 107.299C74.8269 107.274 74.6333 107.409 74.6839 107.7C74.7218 107.923 74.9195 107.999 75.0711 108.008C76.5567 108.1 77.8403 108.121 79.389 107.885C79.6414 107.847 79.7635 107.565 79.6246 107.354ZM74.6712 115.166C74.6671 115.187 74.6628 115.204 74.6628 115.225C74.6292 115.423 74.7765 115.608 74.9785 115.621C77.6424 115.781 80.2476 116.262 81.329 116.481C81.5396 116.523 81.7373 116.359 81.7373 116.144C81.7373 116.102 81.7373 116.064 81.7373 116.026C81.7332 115.866 81.6195 115.731 81.4638 115.697C80.5506 115.52 77.8739 115.035 75.0291 114.883C74.8523 114.871 74.7007 114.993 74.6712 115.166ZM74.3766 116.557C74.3303 116.742 74.4651 116.911 74.6503 116.915C77.3059 117.012 80.1003 117.585 81.287 117.855C81.4722 117.898 81.649 117.834 81.6699 117.569C81.6826 117.396 81.5775 117.27 81.4216 117.236C80.5378 117.05 77.6424 116.481 74.7134 116.329C74.5745 116.325 74.4229 116.376 74.3766 116.557ZM74.2125 118.454C74.078 118.441 73.7707 118.483 73.7032 118.686C73.6361 118.888 73.8968 118.968 74.0401 118.981C77.108 119.238 78.9472 119.719 80.7314 120.182C80.8535 120.216 81.127 120.242 81.1901 120.001C81.2491 119.761 80.9756 119.651 80.8283 119.613C78.9049 119.091 76.9311 118.694 74.2125 118.454ZM79.5867 121.679C77.693 121.118 75.8119 120.621 73.3077 120.528C73.152 120.524 72.8027 120.553 72.689 120.768C72.5756 120.984 72.8742 121.08 73.0637 121.085C76.2916 121.135 78.9975 122.088 79.3343 122.197C79.5404 122.265 79.835 122.328 79.9655 122.16C80.1087 121.966 79.9067 121.776 79.5867 121.679ZM69.2507 125.364C69.4064 125.372 69.5285 125.229 69.499 125.073C69.4023 124.558 69.0404 124.162 68.4301 124.116C68.2154 124.099 67.845 124.078 67.5588 124.061C67.3863 124.052 67.2602 124.221 67.3189 124.381C67.3907 124.567 67.437 124.761 67.4578 124.963C67.4749 125.132 67.6094 125.267 67.7778 125.275L69.2507 125.364ZM68.7961 126.063L67.6222 125.992C67.4873 125.983 67.34 126 67.2179 126.228C67.0961 126.46 67.2474 126.565 67.4202 126.578L68.2828 126.628C68.5395 126.645 68.7669 126.624 68.9142 126.506C69.137 126.329 69.032 126.076 68.7961 126.063ZM69.6463 127.029C70.4082 127.016 70.9635 126.46 71.0477 125.536C71.1151 124.782 70.6984 124.019 69.8946 123.884C69.6758 123.846 69.5369 124.103 69.6758 124.276C69.9157 124.575 70.0503 124.967 70.0167 125.473C69.9872 125.949 69.7221 126.358 69.4695 126.624C69.3181 126.78 69.4359 127.033 69.6463 127.029ZM65.0801 122.8C65.3243 122.813 65.6357 122.729 65.5135 122.522C65.3914 122.316 64.9412 122.252 64.7814 122.244C60.9473 122.071 51.4951 122.071 47.2993 123.281C47.1731 123.315 46.9795 123.428 47.0426 123.618C47.1057 123.808 47.3707 123.783 47.4761 123.757C52.6821 122.463 62.8664 122.682 65.0801 122.8ZM62.7992 123.778C57.7489 123.648 52.9428 123.934 50.342 124.297C50.1611 124.322 49.9337 124.444 50.039 124.647C50.1443 124.845 50.5147 124.879 50.6788 124.858C53.3638 124.533 57.711 124.28 62.4792 124.373C62.6392 124.377 62.9969 124.335 63.0895 124.103C63.1737 123.897 62.9633 123.783 62.7992 123.778ZM49.6813 125.642C49.5552 125.005 49.0878 124.567 48.6419 124.655C48.1957 124.744 47.9347 125.334 48.0652 125.966C48.1914 126.599 48.6587 127.041 49.1046 126.953C49.5508 126.864 49.8118 126.278 49.6813 125.642ZM50.1906 120.743C49.8454 120.971 47.8676 121.536 46.9373 121.839C46.7607 121.898 46.5544 122.037 46.6134 122.286C46.6722 122.535 46.9332 122.459 47.0762 122.421C51.8235 121.047 62.2393 121.24 63.8387 121.325C64.0997 121.338 64.4909 121.24 64.3688 120.958C64.247 120.68 63.8092 120.617 63.5777 120.604C62.0079 120.541 59.1292 120.389 58.7128 120.178C59.2473 119.946 61.768 119.891 63.4009 119.891C63.5777 119.891 63.7545 119.786 63.6283 119.499C63.5062 119.213 63.2663 119.166 63.1485 119.145C62.5003 119.027 62.0921 118.914 61.8481 118.783C62.0709 118.673 62.3866 118.601 62.7234 118.551C62.9465 118.517 63.0768 118.281 62.9885 118.075C62.7359 117.467 62.4752 117.025 62.1384 117.025C61.7049 117.025 61.5408 117.687 61.2798 118.42C61.0483 119.061 60.3961 119.381 59.7942 119.107C59.3315 118.897 59.0829 118.374 59.1882 117.872C59.3862 116.932 59.9036 116.068 60.0804 115.646C60.2572 115.22 60.3246 114.466 59.6637 114.293C58.9316 114.103 58.6075 114.984 58.5108 115.36C58.3381 116.026 58.1277 117.573 57.7825 118.479C57.5848 119.002 57.0588 119.297 56.5075 119.179C55.9435 119.057 55.59 118.496 55.6993 117.91C55.75 117.64 56.3643 115.233 56.3643 114.352C56.3643 113.437 55.2071 111.747 54.2097 111.747C53.4857 111.747 52.2443 113.117 52.2443 114.491C52.2443 115.343 53.2122 117.843 53.2921 118.129C53.4478 118.711 53.1323 119.293 52.5808 119.453C52.038 119.613 51.4826 119.356 51.2552 118.846C50.8261 117.872 50.2326 115.802 50.1822 115.651C50.1232 115.482 49.7907 114.656 49.0164 114.917C48.4567 115.102 48.4397 115.735 48.7302 116.228C48.9194 116.544 49.5887 117.514 49.8706 118.382C50.0349 118.897 49.8413 119.474 49.3656 119.727C48.7892 120.035 48.1242 119.761 47.8464 119.141C47.5938 118.58 47.2909 117.771 46.9205 117.771C46.445 117.771 46.2977 118.694 46.2723 119.445C46.2639 119.655 46.445 119.82 46.6511 119.799C47.0299 119.757 47.3707 119.757 47.5643 119.803C47.3707 119.98 46.9289 120.225 46.5249 120.406C46.3944 120.465 46.3145 120.604 46.3272 120.747C46.3356 120.827 46.344 120.912 46.3565 120.992C46.3776 121.139 46.5165 121.236 46.6595 121.194C47.7874 120.878 49.7571 120.625 50.1906 120.743ZM51.272 114.066C51.4277 114.061 51.5666 113.956 51.6004 113.8C51.6129 113.737 51.6299 113.669 51.6508 113.606C51.693 113.45 51.5793 113.294 51.4152 113.298C49.635 113.349 47.1436 113.294 45.052 113.243C44.8541 113.239 44.7363 113.454 44.8457 113.619C44.8963 113.694 44.9426 113.77 44.993 113.846C45.052 113.947 45.1571 114.011 45.2708 114.015C46.8027 114.066 48.8312 114.103 51.272 114.066ZM48.183 118.125C48.2209 118.205 48.2588 118.29 48.301 118.374C48.3557 118.496 48.4776 118.572 48.6081 118.576C48.6796 118.576 48.7513 118.576 48.8228 118.576C48.9912 118.576 49.113 118.403 49.0459 118.247C49.008 118.155 48.9617 118.062 48.9154 117.969C48.8564 117.855 48.7386 117.784 48.6124 117.784C48.5409 117.784 48.4692 117.784 48.3977 117.784C48.2168 117.78 48.1031 117.965 48.183 118.125ZM50.7335 115.136C50.763 115.204 50.7922 115.275 50.8261 115.347C50.8808 115.474 51.0069 115.558 51.1458 115.558C51.2216 115.558 51.2931 115.558 51.3689 115.554C51.5162 115.549 51.6299 115.419 51.6045 115.271C51.592 115.208 51.5836 115.141 51.5709 115.077C51.5457 114.909 51.3984 114.791 51.23 114.791C51.1374 114.791 51.0448 114.795 50.9522 114.795C50.7754 114.799 50.662 114.98 50.7335 115.136ZM51.2341 116.595C51.2552 116.662 51.2763 116.734 51.3015 116.806C51.3478 116.949 51.4826 117.046 51.6299 117.046C51.6803 117.046 51.735 117.046 51.7897 117.042C51.9538 117.038 52.0675 116.873 52.0128 116.721C51.9876 116.654 51.9665 116.586 51.9413 116.519C51.8907 116.376 51.7602 116.283 51.6088 116.287C51.5582 116.287 51.5119 116.287 51.4615 116.291C51.3015 116.283 51.1881 116.439 51.2341 116.595ZM51.7309 118.087C51.7602 118.163 51.7981 118.26 51.836 118.349C51.8907 118.479 52.0212 118.564 52.1644 118.564C52.2399 118.564 52.3117 118.56 52.3748 118.56C52.5261 118.555 52.6358 118.412 52.6019 118.264C52.5767 118.163 52.5345 118.062 52.4969 117.965C52.4422 117.839 52.3157 117.758 52.1769 117.763C52.1054 117.763 52.0339 117.767 51.9624 117.767C51.7897 117.763 51.6719 117.931 51.7309 118.087ZM52.2064 112.409C52.257 112.333 52.3117 112.257 52.3664 112.181C52.4882 112.021 52.3664 111.797 52.1685 111.802C49.5887 111.869 45.9357 111.81 43.5705 111.709C43.3349 111.701 43.2296 112 43.4191 112.139C43.499 112.198 43.5832 112.261 43.6631 112.324C43.7811 112.421 43.9241 112.48 44.0757 112.485C46.2723 112.569 48.7681 112.624 51.9245 112.565C52.038 112.565 52.1433 112.506 52.2064 112.409ZM44.4585 120.984C44.5427 121.043 44.6397 121.11 44.7406 121.186C44.8625 121.274 45.0856 121.295 45.0688 121.038C45.052 120.781 44.9635 120.625 44.749 120.499C44.5343 120.368 44.3659 120.389 44.2945 120.558C44.227 120.722 44.3491 120.903 44.4585 120.984ZM43.7811 121.983C43.6674 121.902 43.5117 121.932 43.4316 122.046C43.3476 122.16 43.3769 122.32 43.4865 122.404C44.3491 123.045 45.0182 123.846 45.2329 124.116C45.3761 124.293 45.6033 124.419 45.7422 124.31C45.9022 124.183 45.8348 123.981 45.6915 123.791C45.0561 122.94 44.2398 122.303 43.7811 121.983ZM45.9693 115.524C46.487 115.537 46.9963 115.549 47.5012 115.554C47.6612 115.558 47.8085 115.444 47.8421 115.288C47.8548 115.229 47.8716 115.166 47.8884 115.102C47.939 114.951 47.8213 114.795 47.6612 114.795C46.992 114.786 46.3735 114.774 45.8136 114.757C45.6412 114.753 45.5191 114.921 45.5781 115.082C45.6033 115.149 45.6244 115.216 45.6496 115.284C45.6959 115.423 45.822 115.524 45.9693 115.524ZM45.9609 116.536C45.9737 116.603 45.982 116.671 45.9948 116.738C46.02 116.903 46.1588 117.021 46.3229 117.025C46.7353 117.033 47.4549 117.046 47.9558 117.05C48.141 117.054 48.2588 116.852 48.1662 116.692C48.1242 116.62 48.082 116.544 48.04 116.468C47.981 116.359 47.8676 116.287 47.7411 116.287C47.2318 116.283 46.7185 116.27 46.2008 116.258C46.0535 116.254 45.9357 116.388 45.9609 116.536ZM56.8652 116.283C56.8484 116.354 56.8316 116.426 56.8146 116.494C56.7769 116.654 56.9031 116.806 57.0672 116.789C57.1219 116.785 57.1766 116.78 57.2272 116.776C57.3785 116.764 57.505 116.65 57.5342 116.502C57.5469 116.431 57.5637 116.359 57.5764 116.291C57.606 116.135 57.4795 115.992 57.3198 116.009C57.2692 116.013 57.2188 116.017 57.1641 116.021C57.0209 116.03 56.8988 116.135 56.8652 116.283ZM57.3366 115.271C57.4124 115.263 57.4879 115.259 57.5597 115.25C57.6986 115.237 57.812 115.141 57.8542 115.01C57.8751 114.938 57.9005 114.871 57.9298 114.803C57.9972 114.635 57.871 114.458 57.6899 114.479C57.5932 114.487 57.4922 114.495 57.3953 114.508C57.2272 114.525 57.0967 114.656 57.0883 114.824C57.084 114.887 57.0799 114.955 57.0756 115.018C57.0628 115.166 57.1893 115.288 57.3366 115.271ZM56.7599 117.543C56.6169 117.556 56.4948 117.657 56.4569 117.796C56.4401 117.864 56.4233 117.936 56.4106 118.003C56.3897 118.15 56.5116 118.277 56.6589 118.273C56.722 118.268 56.7853 118.268 56.8441 118.264C56.9914 118.26 57.1178 118.163 57.1598 118.02C57.1766 117.961 57.1977 117.898 57.2145 117.834C57.2608 117.67 57.1303 117.51 56.9619 117.526C56.8947 117.531 56.8273 117.539 56.7599 117.543ZM63.5525 125.115C63.5314 125.811 64.0155 126.388 64.6341 126.409C65.2528 126.426 65.7702 125.878 65.7913 125.182C65.8124 124.487 65.3284 123.909 64.7097 123.888C64.091 123.871 63.5736 124.419 63.5525 125.115ZM65.947 120.642C65.1307 119.643 64.6634 117.775 64.6634 115.743C64.6634 113.378 65.3538 111.983 66.1701 111.418C66.4268 111.241 66.2754 111.001 66.0648 111.001C65.1643 111.001 64.1628 112.948 64.1628 115.743C64.1628 118.302 64.7476 120.161 65.7155 120.886C65.8755 121.009 66.0775 120.802 65.947 120.642ZM69.2464 113.56C69.2464 114.791 68.9562 115.971 68.4133 116.856C68.3459 116.966 68.3164 117.059 68.4049 117.113C68.4975 117.172 68.6321 117.101 68.7163 117C69.8737 115.6 70.223 112.177 69.499 110.52C69.3728 110.225 69.1329 109.993 68.9015 109.993C68.6153 109.993 68.4807 110.271 68.6026 110.503C69.0108 111.262 69.2464 112.316 69.2464 113.56ZM68.5227 113.56C68.5227 111.528 67.8157 109.997 66.8814 109.997C66.7257 109.997 66.5616 110.039 66.3932 110.119C66.1912 110.216 66.2164 110.507 66.4311 110.571C67.0918 110.769 67.7148 111.591 67.7148 113.737C67.7148 114.137 67.6768 115.946 67.0035 116.363C66.8562 116.452 66.8687 116.671 67.0119 116.768C67.1002 116.827 67.1971 116.86 67.2937 116.86C67.7903 116.856 68.5227 115.474 68.5227 113.56ZM67.235 113.737C67.235 113.501 66.9234 113.404 66.7931 113.602C66.5741 113.935 66.4227 114.479 66.4227 115.039C66.4227 115.49 66.4983 115.967 66.7046 115.967C67.0455 115.967 67.235 114.66 67.235 113.737ZM67.5041 120.486C69.0444 120.486 71.1698 116.818 71.1698 111.696C71.1698 109.39 70.4374 108.02 69.2927 108.02C67.4074 108.02 62.6855 110.318 49.6139 110.318C42.6572 110.318 41.441 109.896 38.1795 109.896C33.7143 109.896 32.1488 112.712 32.1488 115.275C32.1488 119.529 35.2126 122.071 38.1795 122.071C41.1507 122.071 42.7035 119.499 42.7035 116.957C42.7035 114.538 41.0202 113.041 39.4588 113.041C38.1037 113.041 37.2284 113.876 37.2284 115.17C37.2284 115.731 37.4347 116.384 38.0154 116.384C38.6593 116.384 38.6677 115.254 38.1711 114.517C39.3746 114.171 40.2879 115.339 40.2879 116.683C40.2879 118.066 39.3075 119.373 37.8933 119.373C36.2014 119.373 34.392 117.729 34.392 115.28C34.392 113.125 35.7891 110.84 39.4085 110.84C41.2685 110.84 46.4745 111.068 49.6854 111.068C56.1875 111.068 60.0132 110.562 60.6571 110.786C60.1478 111.093 58.1236 111.384 56.1666 111.587C55.9687 111.608 55.8889 111.844 56.0194 111.991C56.0573 112.033 56.0992 112.08 56.1371 112.126C56.2717 112.291 56.478 112.375 56.6884 112.362C57.6479 112.312 59.0198 112.299 59.466 112.434C59.0829 112.725 58.0267 112.902 57.0588 113.028C56.9031 113.05 56.8105 113.205 56.8652 113.353C56.8904 113.425 56.9156 113.492 56.941 113.564C56.9873 113.711 57.1303 113.812 57.2819 113.8C58.3213 113.733 59.2681 113.446 59.8153 113.585C60.9221 113.859 61.1452 114.904 60.7537 115.916C60.5601 116.418 60.0804 117.13 59.9036 118.011C59.8659 118.201 59.9542 118.403 60.1394 118.462C60.333 118.526 60.5138 118.412 60.6024 118.172C60.7413 117.788 61.0526 116.3 62.1427 116.3C62.4413 116.3 62.6728 116.388 62.8707 116.544C63.0979 116.73 63.4347 116.536 63.4263 116.245C63.422 116.081 63.4177 115.912 63.4177 115.743C63.4177 111.873 65.2106 109.272 66.8855 109.272H68.9689C69.7895 109.272 70.6186 110.014 70.6186 112.649C70.6186 115.495 69.4654 117.872 68.4637 117.872C67.8493 117.872 67.1716 117.864 66.7761 117.598C66.2291 117.227 65.7031 116.321 65.7031 115.039C65.7031 114.137 66.0691 112.919 66.8646 112.611C67.0243 112.552 67.1129 112.379 67.075 112.215C67.0539 112.13 67.033 112.042 67.0035 111.962C66.9404 111.76 66.7005 111.663 66.5194 111.768C65.7786 112.185 65.1475 113.534 65.1475 115.748C65.1475 117.763 65.745 120.486 67.5041 120.486ZM39.0297 116.447C38.8992 116.734 38.6593 116.928 38.3352 117.025C38.1584 117.08 38.1836 117.341 38.3688 117.362C38.815 117.408 39.2904 117.206 39.4967 116.662C39.6104 116.359 39.6104 115.967 39.4799 115.646C39.4041 115.465 39.1391 115.541 39.1559 115.739C39.181 115.984 39.1391 116.211 39.0297 116.447ZM38.1795 109.171C41.2011 109.171 42.5901 109.593 49.6139 109.593C62.7738 109.593 67.2266 107.295 69.2927 107.295C69.861 107.295 69.8862 106.81 69.2927 106.81C67.3484 106.81 62.7738 109.108 49.6139 109.108C42.4089 109.108 41.8493 108.686 38.1795 108.686C37.4136 108.686 37.2284 109.171 38.1795 109.171ZM45.6117 128.213C44.1851 127.408 43.6506 125.482 43.8483 123.821C43.8567 123.741 43.8231 123.564 43.6463 123.534C43.4865 123.509 43.3476 123.601 43.3349 123.766C43.1833 125.802 43.7432 127.863 45.3886 128.648C45.5107 128.707 45.6623 128.686 45.721 128.53C45.7885 128.373 45.6959 128.26 45.6117 128.213ZM46.992 127.682C47.1479 127.632 47.1942 127.429 47.0889 127.299C46.9205 127.096 46.7058 126.759 46.6091 126.287C46.5292 125.907 46.546 125.515 46.6386 125.165C46.6806 125.005 46.5585 124.845 46.3987 124.862C45.7925 124.925 45.2456 125.574 45.4054 126.544C45.5486 127.408 46.3608 127.889 46.992 127.682ZM49.5719 150.742C49.576 150.595 49.4414 150.481 49.2941 150.502C49.2562 150.506 49.2183 150.514 49.1804 150.519C49.0627 150.536 48.9701 150.632 48.9657 150.751L48.9573 151.096C48.9533 151.248 49.0922 151.366 49.2395 151.337C49.2858 151.328 49.3321 151.32 49.374 151.311C49.4834 151.286 49.5592 151.193 49.5635 151.079C49.5676 150.983 49.5676 150.856 49.5719 150.742ZM49.5971 149.174C49.6014 149.022 49.4666 148.908 49.3193 148.934C49.2858 148.938 49.2519 148.946 49.2183 148.95C49.1006 148.967 49.012 149.064 49.008 149.182L48.9996 149.528C48.9952 149.68 49.1341 149.798 49.2814 149.768C49.3237 149.76 49.3656 149.752 49.4035 149.743C49.5129 149.718 49.5887 149.625 49.5887 149.511L49.5971 149.174ZM49.6223 147.585C49.6266 147.446 49.5002 147.34 49.3656 147.365C49.3237 147.374 49.2814 147.378 49.2395 147.387C49.1301 147.403 49.0459 147.492 49.0459 147.601L49.0375 147.985C49.0332 148.124 49.1593 148.234 49.2982 148.208C49.3488 148.2 49.3992 148.187 49.4414 148.179C49.5424 148.154 49.6139 148.069 49.6139 147.968L49.6223 147.585ZM49.6434 146.016C49.6477 145.877 49.5213 145.772 49.3867 145.797C49.3488 145.806 49.3109 145.81 49.273 145.814C49.1637 145.831 49.0838 145.919 49.0794 146.029L49.0711 146.413C49.0667 146.552 49.1932 146.661 49.3321 146.636C49.3784 146.628 49.4247 146.619 49.4626 146.607C49.5635 146.581 49.6307 146.497 49.635 146.396L49.6434 146.016ZM49.6686 144.448C49.6729 144.309 49.5465 144.204 49.4119 144.229C49.3784 144.233 49.3445 144.242 49.3109 144.246C49.2016 144.263 49.1217 144.351 49.1174 144.461L49.109 144.844C49.1046 144.984 49.2351 145.093 49.37 145.068C49.4119 145.059 49.4498 145.051 49.4877 145.043C49.5887 145.017 49.6561 144.933 49.6602 144.832L49.6686 144.448ZM49.6938 142.88C49.6981 142.741 49.5719 142.635 49.4371 142.661C49.4079 142.665 49.3784 142.669 49.3488 142.673C49.2435 142.69 49.1593 142.779 49.1553 142.884L49.1469 143.268C49.1425 143.407 49.273 143.516 49.4079 143.491C49.4455 143.483 49.4793 143.474 49.5129 143.47C49.6139 143.445 49.6813 143.36 49.6854 143.259L49.6938 142.88ZM49.7192 141.312C49.7233 141.172 49.5971 141.067 49.4626 141.093C49.4371 141.097 49.4119 141.101 49.3824 141.105C49.2774 141.122 49.1972 141.215 49.1972 141.324L49.1888 141.704C49.1848 141.843 49.3153 141.952 49.4539 141.927C49.4877 141.919 49.5173 141.914 49.5465 141.906C49.6434 141.881 49.7149 141.796 49.7149 141.695L49.7192 141.312ZM49.7444 139.743C49.7487 139.604 49.6223 139.499 49.4877 139.524C49.4626 139.528 49.4414 139.533 49.4163 139.537C49.3109 139.554 49.2351 139.642 49.2351 139.748L49.2267 140.131C49.2227 140.274 49.3529 140.38 49.4961 140.355C49.5256 140.35 49.5508 140.342 49.5803 140.338C49.677 140.313 49.7401 140.228 49.7444 140.127V139.743ZM49.7696 138.175C49.7739 138.036 49.6477 137.93 49.5129 137.956C49.4961 137.96 49.475 137.96 49.4539 137.964C49.3488 137.981 49.273 138.07 49.273 138.175L49.2646 138.554C49.2603 138.698 49.3951 138.807 49.534 138.778C49.5592 138.774 49.5803 138.769 49.6014 138.761C49.6981 138.736 49.7612 138.651 49.7655 138.55L49.7696 138.175ZM49.795 136.603C49.7991 136.463 49.677 136.362 49.5381 136.383C49.3992 136.4 49.3153 136.497 49.3109 136.603L49.3025 136.982C49.2982 137.125 49.433 137.239 49.5719 137.205C49.7108 137.172 49.7907 137.083 49.7907 136.982L49.795 136.603ZM49.8202 135.034C49.8243 134.895 49.6981 134.79 49.5635 134.815C49.4247 134.84 49.3529 134.929 49.3488 135.034L49.3404 135.414C49.3361 135.557 49.475 135.667 49.6098 135.637C49.7444 135.604 49.8118 135.519 49.8159 135.418L49.8202 135.034ZM49.8454 133.466C49.8497 133.327 49.7233 133.226 49.5844 133.247C49.4455 133.264 49.3867 133.357 49.3824 133.462L49.374 133.841C49.37 133.985 49.5002 134.09 49.6434 134.065C49.7696 134.039 49.8327 133.951 49.837 133.846L49.8454 133.466ZM49.8665 131.898C49.8706 131.759 49.7401 131.654 49.6055 131.679C49.4709 131.704 49.4203 131.788 49.4203 131.894L49.4119 132.273C49.4079 132.416 49.5424 132.522 49.6813 132.497C49.795 132.471 49.8581 132.383 49.8622 132.282L49.8665 131.898ZM49.8917 130.321C49.896 130.186 49.7739 130.089 49.6391 130.106C49.5045 130.127 49.4626 130.212 49.4582 130.313L49.4498 130.705C49.4455 130.844 49.5803 130.945 49.7108 130.92C49.8286 130.899 49.8833 130.81 49.8833 130.713L49.8917 130.321ZM53.5404 150.527C53.5404 150.321 53.3679 150.16 53.1616 150.186C52.9975 150.203 52.8334 150.215 52.6734 150.224C52.4925 150.232 52.3536 150.38 52.3536 150.561L52.3496 150.717C52.3453 150.915 52.5093 151.075 52.7073 151.067C52.884 151.058 53.0606 151.042 53.2374 151.016C53.4058 150.991 53.532 150.847 53.5363 150.679L53.5404 150.527ZM53.5574 148.959C53.5574 148.752 53.3847 148.592 53.1786 148.617C53.0186 148.634 52.8545 148.647 52.6945 148.655C52.5137 148.664 52.3748 148.811 52.3748 148.993L52.3704 149.149C52.3664 149.347 52.5305 149.507 52.7281 149.498C52.9008 149.49 53.0776 149.473 53.2542 149.448C53.4226 149.423 53.549 149.279 53.5531 149.111L53.5574 148.959ZM53.5699 147.391C53.5699 147.184 53.3974 147.024 53.1911 147.049C53.0313 147.066 52.8713 147.079 52.7156 147.087C52.5345 147.096 52.3959 147.243 52.3959 147.424L52.3916 147.58C52.3872 147.779 52.5516 147.939 52.7492 147.93C52.9217 147.922 53.0944 147.905 53.2669 147.88C53.4353 147.854 53.5615 147.711 53.5658 147.542L53.5699 147.391ZM53.5867 145.822C53.5867 145.616 53.4142 145.456 53.2079 145.481C53.0522 145.498 52.8924 145.51 52.7368 145.519C52.5556 145.527 52.4167 145.675 52.4167 145.856L52.4127 146.012C52.4083 146.21 52.5724 146.37 52.7703 146.362C52.9387 146.354 53.1112 146.337 53.2837 146.311C53.4521 146.286 53.5783 146.143 53.5826 145.974L53.5867 145.822ZM53.6037 144.254C53.6037 144.048 53.431 143.887 53.2249 143.913C53.0692 143.93 52.9133 143.942 52.7619 143.951C52.5808 143.959 52.4422 144.107 52.4422 144.288L52.4379 144.444C52.4335 144.642 52.5979 144.802 52.7955 144.794C52.9639 144.785 53.1323 144.768 53.3005 144.743C53.4689 144.718 53.5951 144.575 53.5994 144.406L53.6037 144.254ZM53.6162 142.686C53.6162 142.479 53.4437 142.319 53.2374 142.344C53.086 142.361 52.9303 142.374 52.7787 142.382C52.5979 142.391 52.459 142.538 52.459 142.72L52.4546 142.875C52.4506 143.074 52.6147 143.234 52.8123 143.226C52.9766 143.217 53.1448 143.2 53.3132 143.175C53.4816 143.15 53.6078 143.006 53.6121 142.838L53.6162 142.686ZM53.633 141.118C53.633 140.911 53.4564 140.751 53.2542 140.776C53.1028 140.793 52.9512 140.806 52.8039 140.81C52.6271 140.818 52.4841 140.966 52.4841 141.147L52.4798 141.303C52.4758 141.501 52.6442 141.662 52.8377 141.653C53.0018 141.645 53.1659 141.628 53.33 141.603C53.4984 141.577 53.6246 141.434 53.6289 141.265L53.633 141.118ZM53.6457 139.549C53.6457 139.343 53.4732 139.183 53.2669 139.208C53.1196 139.225 52.968 139.238 52.8207 139.242C52.6442 139.25 52.5009 139.398 52.5009 139.579L52.4969 139.735C52.4925 139.933 52.661 140.093 52.8586 140.085C53.0186 140.076 53.1827 140.059 53.3468 140.038C53.5152 140.013 53.6414 139.87 53.6457 139.701V139.549ZM53.6625 137.981C53.6625 137.775 53.4857 137.615 53.2837 137.64C53.1364 137.657 52.9934 137.669 52.8461 137.674C52.6693 137.682 52.5261 137.829 52.5261 138.011L52.5221 138.167C52.5177 138.365 52.6861 138.525 52.884 138.517C53.0438 138.508 53.2038 138.491 53.3638 138.47C53.532 138.445 53.6584 138.302 53.6625 138.133V137.981ZM53.6793 136.413C53.6793 136.206 53.5027 136.046 53.3005 136.071C53.1575 136.088 53.0143 136.101 52.8713 136.105C52.6945 136.114 52.5516 136.261 52.5516 136.442L52.5472 136.599C52.5432 136.797 52.7113 136.957 52.9092 136.948C53.0649 136.94 53.2249 136.923 53.3847 136.902C53.5531 136.877 53.6793 136.733 53.6836 136.565L53.6793 136.413ZM53.692 134.845C53.692 134.638 53.5152 134.478 53.3132 134.503C53.1702 134.52 53.0313 134.529 52.8881 134.537C52.7113 134.545 52.5684 134.693 52.5684 134.874L52.564 135.03C52.56 135.228 52.7281 135.388 52.926 135.38C53.0817 135.372 53.2374 135.355 53.3931 135.334C53.5615 135.309 53.6877 135.165 53.6877 134.996L53.692 134.845ZM53.7088 133.276C53.7088 133.07 53.532 132.91 53.33 132.935C53.1911 132.952 53.0522 132.96 52.9133 132.969C52.7368 132.977 52.5935 133.125 52.5935 133.306L52.5895 133.462C52.5851 133.66 52.7535 133.82 52.9512 133.812C53.1028 133.803 53.2585 133.787 53.4142 133.765C53.5826 133.74 53.7088 133.597 53.7088 133.428V133.276ZM53.7256 131.704C53.7256 131.502 53.5531 131.341 53.3511 131.362C53.2122 131.379 53.0692 131.388 52.9303 131.396C52.7535 131.405 52.6146 131.552 52.6146 131.729L52.6103 131.894C52.6063 132.092 52.7703 132.252 52.968 132.239C53.1196 132.231 53.2753 132.214 53.431 132.193C53.5994 132.168 53.7215 132.028 53.7256 131.86V131.704ZM53.7383 130.14C53.7383 129.933 53.5615 129.773 53.3595 129.794C53.2249 129.811 53.0901 129.82 52.9555 129.828C52.7744 129.836 52.6358 129.988 52.6314 130.165V130.317C52.6271 130.515 52.7955 130.679 52.9934 130.667C53.1407 130.659 53.2921 130.642 53.4394 130.62C53.6078 130.595 53.7339 130.452 53.7383 130.283V130.14ZM58.8642 150.337C58.8642 150.135 58.6917 149.979 58.4938 149.996C58.0267 150.038 57.5342 150.042 57.084 150.013C56.8863 150 56.722 150.156 56.722 150.35V150.502C56.722 150.683 56.8568 150.835 57.0377 150.847C57.5174 150.885 58.0646 150.881 58.5612 150.827C58.7337 150.81 58.8685 150.662 58.8685 150.485L58.8642 150.337ZM58.8642 148.769C58.8642 148.567 58.6917 148.411 58.4938 148.428C58.0267 148.47 57.5426 148.474 57.0924 148.445C56.8947 148.432 56.7306 148.588 56.7306 148.782V148.934C56.7306 149.115 56.8652 149.267 57.0461 149.279C57.5218 149.317 58.0646 149.313 58.5612 149.258C58.7337 149.241 58.8685 149.094 58.8685 148.917L58.8642 148.769ZM58.8685 147.201C58.8685 146.999 58.6958 146.843 58.4981 146.859C58.0351 146.902 57.5513 146.906 57.1051 146.876C56.9072 146.864 56.7431 147.02 56.7431 147.214V147.365C56.7431 147.547 56.8779 147.698 57.0588 147.711C57.5342 147.749 58.073 147.745 58.5655 147.69C58.738 147.673 58.8725 147.526 58.8725 147.349L58.8685 147.201ZM58.8685 145.633C58.8685 145.43 58.6958 145.274 58.4981 145.291C58.0394 145.333 57.5553 145.338 57.1135 145.308C56.9156 145.295 56.7515 145.451 56.7515 145.645V145.797C56.7515 145.978 56.8863 146.13 57.0672 146.143C57.5385 146.181 58.073 146.176 58.5655 146.122C58.738 146.105 58.8725 145.957 58.8725 145.78L58.8685 145.633ZM58.8725 144.064C58.8725 143.862 58.7001 143.706 58.5022 143.723C58.0478 143.765 57.5681 143.765 57.1262 143.736C56.9283 143.723 56.7642 143.879 56.7642 144.073V144.225C56.7642 144.406 56.8988 144.558 57.0799 144.57C57.5469 144.608 58.0814 144.604 58.5696 144.549C58.742 144.532 58.8769 144.385 58.8769 144.208L58.8725 144.064ZM58.8725 142.496C58.8725 142.294 58.7001 142.138 58.5022 142.155C58.0478 142.197 57.5721 142.197 57.1346 142.167C56.9367 142.155 56.7726 142.311 56.7726 142.505V142.656C56.7726 142.838 56.9072 142.989 57.0883 143.002C57.5553 143.04 58.0857 143.036 58.5696 142.981C58.742 142.964 58.8769 142.816 58.8769 142.639L58.8725 142.496ZM58.8769 140.928C58.8769 140.726 58.7044 140.57 58.5065 140.587C58.0562 140.629 57.5848 140.629 57.147 140.599C56.9494 140.587 56.7853 140.742 56.7853 140.936V141.088C56.7853 141.27 56.9199 141.421 57.1007 141.434C57.5637 141.472 58.0898 141.467 58.5739 141.413C58.7464 141.396 58.8809 141.248 58.8809 141.071L58.8769 140.928ZM58.8809 139.36C58.8809 139.157 58.7085 139.001 58.5108 139.018C58.0646 139.06 57.5932 139.06 57.1641 139.031C56.9662 139.018 56.8021 139.174 56.8021 139.368V139.52C56.8021 139.701 56.9367 139.853 57.1178 139.866C57.5805 139.899 58.1025 139.899 58.5823 139.844C58.7548 139.828 58.8893 139.68 58.8893 139.503L58.8809 139.36ZM58.8809 137.792C58.8809 137.589 58.7085 137.433 58.5108 137.45C58.0646 137.488 57.6016 137.492 57.1725 137.463C56.9746 137.45 56.8105 137.606 56.8105 137.8V137.952C56.8105 138.133 56.9451 138.285 57.1262 138.297C57.5848 138.331 58.1025 138.331 58.5823 138.276C58.7548 138.259 58.8893 138.112 58.8893 137.935L58.8809 137.792ZM58.8853 136.223C58.8853 136.021 58.7128 135.865 58.5149 135.882C58.073 135.92 57.61 135.924 57.1849 135.894C56.9873 135.882 56.8232 136.038 56.8232 136.232V136.383C56.8232 136.565 56.9578 136.717 57.1387 136.729C57.5932 136.763 58.1109 136.759 58.5823 136.708C58.7548 136.691 58.8893 136.544 58.8893 136.367L58.8853 136.223ZM58.8853 134.655C58.8853 134.453 58.7128 134.297 58.5149 134.314C58.0773 134.352 57.6144 134.356 57.1933 134.326C56.9957 134.314 56.8316 134.47 56.8316 134.663V134.815C56.8316 134.996 56.9662 135.148 57.147 135.161C57.6016 135.195 58.115 135.19 58.5823 135.14C58.7548 135.123 58.8893 134.975 58.8893 134.798L58.8853 134.655ZM58.8893 133.087C58.8893 132.884 58.7212 132.728 58.5192 132.745C58.0814 132.783 57.6228 132.787 57.2017 132.758C57.0082 132.745 56.8441 132.901 56.84 133.095V133.247C56.84 133.428 56.9789 133.58 57.1554 133.593C57.606 133.626 58.1109 133.622 58.578 133.572C58.7548 133.555 58.8853 133.407 58.8853 133.23L58.8893 133.087ZM58.8893 131.518C58.8893 131.316 58.7212 131.16 58.5192 131.177C58.0857 131.215 57.6311 131.219 57.2104 131.19C57.0168 131.177 56.8525 131.333 56.8484 131.527V131.683C56.8484 131.864 56.9873 132.016 57.1641 132.028C57.61 132.062 58.115 132.058 58.578 132.008C58.7548 131.991 58.8853 131.843 58.8853 131.666L58.8893 131.518ZM58.8937 129.95C58.8937 129.752 58.7253 129.592 58.5276 129.609C58.132 129.638 57.6352 129.643 57.2229 129.621C57.0293 129.609 56.8652 129.765 56.8652 129.963V130.119C56.8652 130.3 57.0041 130.452 57.1809 130.465C57.6268 130.498 58.1277 130.494 58.5864 130.443C58.7632 130.427 58.8937 130.279 58.8937 130.102V129.95ZM62.2393 130.098C62.2393 130.275 62.3742 130.423 62.5466 130.439C63.0096 130.49 63.5103 130.494 63.9524 130.46C64.1333 130.448 64.2721 130.296 64.2678 130.115V129.959C64.2678 129.765 64.1037 129.609 63.9101 129.617C63.4978 129.638 63.0012 129.634 62.6057 129.605C62.4077 129.588 62.2393 129.748 62.2393 129.946V130.098ZM62.2393 131.666C62.2393 131.843 62.3742 131.991 62.5466 132.008C63.0096 132.058 63.5146 132.062 63.9608 132.028C64.1416 132.016 64.2805 131.864 64.2762 131.683V131.527C64.2762 131.329 64.1121 131.177 63.9145 131.19C63.4935 131.219 63.0391 131.215 62.6057 131.177C62.4077 131.16 62.2353 131.316 62.2353 131.518L62.2393 131.666ZM62.2437 133.234C62.2437 133.411 62.3782 133.559 62.5507 133.576C63.018 133.626 63.523 133.631 63.9732 133.597C64.1544 133.584 64.2933 133.432 64.2889 133.251V133.099C64.2889 132.901 64.1249 132.749 63.9269 132.762C63.5062 132.792 63.0475 132.787 62.6097 132.749C62.4121 132.733 62.2393 132.889 62.2393 133.091L62.2437 133.234ZM62.2477 134.803C62.2477 134.98 62.3782 135.127 62.555 135.144C63.0264 135.195 63.5398 135.199 63.99 135.165C64.1712 135.152 64.3057 135.001 64.3057 134.819V134.668C64.3057 134.47 64.1373 134.318 63.9437 134.33C63.5189 134.36 63.06 134.356 62.6225 134.318C62.4205 134.301 62.2521 134.457 62.2521 134.659L62.2477 134.803ZM62.2477 136.371C62.2477 136.548 62.3782 136.695 62.555 136.712C63.0264 136.763 63.5441 136.767 63.9987 136.733C64.1796 136.721 64.3141 136.569 64.3141 136.388V136.236C64.3141 136.038 64.146 135.886 63.9524 135.899C63.5273 135.928 63.0643 135.924 62.6225 135.886C62.4205 135.869 62.2521 136.025 62.2521 136.227L62.2477 136.371ZM62.2521 137.939C62.2521 138.116 62.3826 138.264 62.5594 138.281C63.0348 138.331 63.5566 138.335 64.0155 138.302C64.1963 138.289 64.3309 138.137 64.3309 137.956V137.804C64.3309 137.606 64.1628 137.454 63.9692 137.467C63.5398 137.497 63.0727 137.492 62.6308 137.454C62.4289 137.437 62.2605 137.593 62.2605 137.796L62.2521 137.939ZM62.2521 139.511C62.2521 139.689 62.3826 139.836 62.5594 139.853C63.0391 139.904 63.5609 139.908 64.0239 139.874C64.2047 139.861 64.3396 139.71 64.3396 139.528V139.377C64.3396 139.179 64.1712 139.027 63.9776 139.039C63.5441 139.069 63.0768 139.065 62.6265 139.027C62.4245 139.01 62.2561 139.166 62.2561 139.368L62.2521 139.511ZM62.2561 141.08C62.2561 141.257 62.3866 141.404 62.5634 141.421C63.0432 141.472 63.5693 141.476 64.0363 141.442C64.2174 141.43 64.352 141.278 64.352 141.097V140.945C64.352 140.747 64.1836 140.595 63.99 140.608C63.5566 140.637 63.0854 140.633 62.6308 140.595C62.4289 140.578 62.2605 140.734 62.2605 140.936L62.2561 141.08ZM62.2561 142.648C62.2561 142.825 62.3866 142.973 62.5634 142.989C63.0475 143.04 63.5777 143.044 64.0447 143.011C64.2258 142.998 64.3604 142.846 64.3604 142.665V142.513C64.3604 142.315 64.1923 142.163 63.9987 142.176C63.5609 142.205 63.0854 142.201 62.6308 142.163C62.4289 142.146 62.2605 142.302 62.2605 142.505L62.2561 142.648ZM62.2605 144.216C62.2605 144.393 62.391 144.541 62.5678 144.558C63.0559 144.608 63.5861 144.612 64.0574 144.579C64.2383 144.566 64.3731 144.414 64.3731 144.233V144.081C64.3731 143.883 64.2047 143.727 64.0111 143.744C63.5693 143.773 63.0938 143.769 62.6349 143.732C62.4329 143.714 62.2645 143.87 62.2645 144.073L62.2605 144.216ZM62.2645 145.784C62.2645 145.961 62.395 146.109 62.5718 146.126C63.06 146.181 63.5988 146.181 64.0702 146.147C64.251 146.134 64.3859 145.983 64.3859 145.801V145.65C64.3859 145.451 64.2174 145.295 64.0239 145.312C63.582 145.342 63.0979 145.338 62.6392 145.295C62.4373 145.279 62.2689 145.435 62.2689 145.637L62.2645 145.784ZM62.2645 147.353C62.2645 147.53 62.395 147.677 62.5718 147.694C63.0643 147.749 63.6029 147.749 64.0786 147.715C64.2594 147.703 64.3942 147.551 64.3942 147.369V147.218C64.3942 147.02 64.2258 146.864 64.0323 146.881C63.5861 146.91 63.1022 146.906 62.6392 146.864C62.4373 146.847 62.2689 147.003 62.2689 147.205L62.2645 147.353ZM62.2689 148.921C62.2689 149.098 62.3994 149.246 62.5762 149.262C63.0727 149.317 63.6156 149.321 64.091 149.283C64.2721 149.271 64.4067 149.119 64.4067 148.938V148.786C64.4067 148.588 64.2383 148.432 64.0447 148.449C63.5988 148.478 63.1106 148.474 62.6433 148.432C62.4413 148.415 62.2732 148.571 62.2732 148.773L62.2689 148.921ZM64.4151 150.506V150.354C64.4151 150.156 64.247 150 64.0534 150.017C63.6029 150.047 63.1106 150.047 62.6433 150C62.4413 149.983 62.2732 150.139 62.2732 150.342V150.493C62.2732 150.67 62.4077 150.818 62.5802 150.835C63.0768 150.89 63.624 150.894 64.1037 150.856C64.2805 150.835 64.4151 150.683 64.4151 150.506ZM67.3947 130.283C67.3947 130.456 67.5252 130.599 67.6936 130.62C67.8409 130.642 67.9923 130.659 68.1398 130.667C68.3375 130.679 68.5059 130.515 68.5016 130.317V130.165C68.4975 129.984 68.3586 129.836 68.1775 129.828C68.0429 129.82 67.9083 129.811 67.7735 129.794C67.5675 129.773 67.3907 129.933 67.3947 130.14V130.283ZM67.4115 131.856C67.4115 132.024 67.5379 132.168 67.7061 132.189C67.8577 132.21 68.0134 132.227 68.1691 132.235C68.367 132.248 68.527 132.087 68.527 131.89L68.5227 131.725C68.5184 131.548 68.3838 131.4 68.207 131.392C68.0681 131.384 67.9292 131.375 67.7862 131.358C67.5842 131.337 67.4115 131.493 67.4115 131.7V131.856ZM67.4242 133.424C67.4242 133.593 67.5504 133.736 67.7188 133.761C67.8704 133.782 68.0261 133.799 68.1818 133.808C68.3795 133.82 68.5438 133.656 68.5438 133.458L68.5395 133.302C68.5354 133.125 68.3965 132.973 68.2197 132.964C68.0808 132.956 67.9419 132.948 67.803 132.931C67.601 132.91 67.4242 133.07 67.4242 133.272V133.424ZM67.441 134.992C67.441 135.161 67.5675 135.304 67.7356 135.329C67.8913 135.351 68.0472 135.368 68.2029 135.376C68.4006 135.388 68.5647 135.224 68.5647 135.026L68.5606 134.87C68.5563 134.689 68.4174 134.541 68.2408 134.533C68.0976 134.524 67.9587 134.516 67.8157 134.499C67.6138 134.478 67.437 134.638 67.437 134.84L67.441 134.992ZM67.4538 136.56C67.4538 136.729 67.5799 136.872 67.7524 136.898C67.9083 136.919 68.0681 136.936 68.2281 136.944C68.4258 136.957 68.5901 136.792 68.5901 136.594L68.5858 136.438C68.5817 136.257 68.4428 136.109 68.266 136.101C68.1228 136.093 67.9798 136.084 67.8366 136.067C67.6346 136.046 67.4578 136.206 67.4578 136.409L67.4538 136.56ZM67.4705 138.129C67.4705 138.297 67.5967 138.441 67.7694 138.466C67.9292 138.487 68.0892 138.504 68.2492 138.512C68.4469 138.525 68.611 138.361 68.611 138.162L68.6069 138.007C68.6026 137.825 68.4637 137.678 68.2871 137.669C68.1396 137.661 67.9966 137.652 67.8493 137.635C67.6473 137.615 67.4705 137.775 67.4705 137.977V138.129ZM67.4873 139.697C67.4873 139.866 67.6138 140.009 67.7862 140.034C67.946 140.055 68.1103 140.072 68.2744 140.081C68.4721 140.093 68.6364 139.929 68.6364 139.731L68.6321 139.575C68.628 139.393 68.4891 139.246 68.3123 139.238C68.165 139.229 68.0177 139.22 67.8661 139.204C67.6641 139.183 67.4873 139.343 67.4873 139.545V139.697ZM67.5 141.265C67.5 141.434 67.6305 141.577 67.7987 141.603C67.963 141.628 68.1271 141.64 68.2912 141.653C68.4891 141.666 68.6532 141.501 68.6489 141.303L68.6448 141.147C68.6405 140.966 68.5016 140.818 68.3248 140.81C68.1734 140.801 68.0261 140.793 67.8745 140.776C67.6725 140.755 67.4957 140.915 67.4957 141.118L67.5 141.265ZM67.5168 142.834C67.5168 143.002 67.6473 143.145 67.8157 143.171C67.9798 143.196 68.1482 143.209 68.3164 143.221C68.5143 143.234 68.6784 143.07 68.6743 142.871L68.67 142.715C68.6656 142.534 68.527 142.387 68.3502 142.378C68.1986 142.37 68.0472 142.361 67.8913 142.34C67.6893 142.319 67.5125 142.479 67.5125 142.682L67.5168 142.834ZM67.5296 144.402C67.5296 144.575 67.6601 144.714 67.8282 144.739C67.9966 144.764 68.1691 144.781 68.3332 144.789C68.5311 144.802 68.6952 144.638 68.6911 144.44L68.6868 144.284C68.6827 144.102 68.5438 143.955 68.367 143.946C68.2154 143.938 68.0597 143.93 67.904 143.909C67.702 143.887 67.5252 144.048 67.5252 144.25L67.5296 144.402ZM67.5463 145.97C67.5463 146.143 67.6768 146.282 67.845 146.307C68.0134 146.333 68.1902 146.349 68.3586 146.358C68.5563 146.37 68.7206 146.206 68.7163 146.008L68.7119 145.852C68.7079 145.671 68.569 145.523 68.3922 145.515C68.2365 145.506 68.0808 145.494 67.9208 145.477C67.7188 145.456 67.542 145.616 67.542 145.818L67.5463 145.97ZM67.5631 147.538C67.5631 147.711 67.6936 147.85 67.862 147.875C68.0345 147.901 68.2113 147.918 68.3795 147.926C68.5774 147.939 68.7414 147.774 68.7374 147.576L68.7331 147.42C68.729 147.239 68.5901 147.091 68.4133 147.083C68.2576 147.074 68.0976 147.062 67.9376 147.045C67.7356 147.024 67.5588 147.184 67.5588 147.387L67.5631 147.538ZM67.5759 149.106C67.5759 149.279 67.7061 149.418 67.8745 149.444C68.0472 149.469 68.2281 149.486 68.4006 149.494C68.5985 149.507 68.7626 149.342 68.7582 149.144L68.7542 148.988C68.7498 148.807 68.611 148.659 68.4344 148.651C68.2744 148.643 68.1144 148.63 67.9503 148.613C67.7483 148.592 67.5715 148.752 67.5715 148.955L67.5759 149.106ZM68.7794 150.717L68.7753 150.561C68.771 150.38 68.6321 150.232 68.4553 150.224C68.2955 150.215 68.1312 150.203 67.9671 150.186C67.7651 150.165 67.5883 150.325 67.5883 150.527V150.675C67.5883 150.847 67.7188 150.987 67.8872 151.012C68.064 151.037 68.2449 151.054 68.4174 151.063C68.6193 151.075 68.7837 150.915 68.7794 150.717ZM71.2456 130.713C71.2456 130.81 71.3003 130.899 71.4181 130.92C71.5486 130.945 71.6832 130.844 71.6791 130.705L71.6707 130.313C71.6664 130.212 71.6244 130.123 71.4896 130.106C71.355 130.089 71.2372 130.186 71.2372 130.321L71.2456 130.713ZM71.2708 132.277C71.2708 132.379 71.3382 132.467 71.4517 132.492C71.5906 132.522 71.7254 132.416 71.7211 132.269L71.7127 131.89C71.7086 131.784 71.658 131.7 71.5275 131.674C71.3929 131.649 71.2665 131.755 71.2665 131.894L71.2708 132.277ZM71.296 133.846C71.296 133.947 71.3591 134.039 71.4896 134.065C71.6328 134.09 71.7633 133.989 71.759 133.841L71.7506 133.462C71.7463 133.357 71.6875 133.264 71.5486 133.247C71.4097 133.23 71.2876 133.327 71.2876 133.466L71.296 133.846ZM71.3214 135.414C71.3214 135.515 71.3929 135.599 71.5275 135.633C71.6623 135.667 71.8012 135.553 71.7969 135.41L71.7885 135.03C71.7842 134.925 71.7127 134.836 71.5738 134.811C71.4349 134.786 71.3128 134.891 71.3171 135.03L71.3214 135.414ZM71.3423 136.982C71.3423 137.079 71.4224 137.172 71.5613 137.205C71.7 137.239 71.8348 137.125 71.8305 136.982L71.8221 136.603C71.818 136.497 71.7338 136.4 71.5949 136.383C71.456 136.367 71.3339 136.463 71.3382 136.603L71.3423 136.982ZM71.3677 138.55C71.3677 138.647 71.4349 138.736 71.5318 138.761C71.5527 138.765 71.5781 138.774 71.599 138.778C71.7379 138.807 71.8727 138.698 71.8684 138.554L71.86 138.175C71.8559 138.07 71.7801 137.977 71.6791 137.964C71.658 137.96 71.6412 137.96 71.6201 137.956C71.4855 137.935 71.3591 138.036 71.3634 138.175L71.3677 138.55ZM71.3929 140.118C71.3929 140.215 71.4601 140.304 71.557 140.329C71.5822 140.338 71.6117 140.342 71.6412 140.346C71.7801 140.376 71.9106 140.266 71.9106 140.123L71.9022 139.739C71.8979 139.634 71.8221 139.541 71.7211 139.528C71.6959 139.524 71.6748 139.52 71.6496 139.516C71.515 139.49 71.3886 139.596 71.3929 139.735V140.118ZM71.4181 141.687C71.4181 141.788 71.4896 141.877 71.5865 141.898C71.616 141.906 71.6453 141.91 71.6791 141.919C71.818 141.944 71.9442 141.839 71.9442 141.695L71.9358 141.316C71.9315 141.206 71.8559 141.113 71.7506 141.097C71.7254 141.092 71.6959 141.088 71.6707 141.084C71.5359 141.059 71.4097 141.164 71.4138 141.303L71.4181 141.687ZM71.4433 143.255C71.4433 143.356 71.515 143.445 71.616 143.466C71.6496 143.474 71.6832 143.483 71.7211 143.487C71.86 143.512 71.9861 143.407 71.9821 143.263L71.9737 142.88C71.9694 142.77 71.8895 142.682 71.7801 142.669C71.7506 142.665 71.7211 142.661 71.6916 142.656C71.557 142.631 71.4308 142.737 71.4349 142.875L71.4433 143.255ZM71.4687 144.823C71.4687 144.925 71.5402 145.013 71.6412 145.034C71.6791 145.043 71.717 145.051 71.759 145.059C71.8979 145.085 72.024 144.975 72.02 144.836L72.0116 144.452C72.0073 144.343 71.9274 144.254 71.818 144.237C71.7842 144.233 71.7506 144.229 71.717 144.22C71.5822 144.195 71.456 144.305 71.4601 144.44L71.4687 144.823ZM71.4939 146.392C71.4939 146.493 71.5654 146.581 71.6664 146.602C71.7086 146.611 71.7506 146.619 71.7969 146.632C71.9358 146.657 72.0619 146.548 72.0579 146.408L72.0495 146.025C72.0452 145.915 71.9653 145.827 71.8559 145.81C71.818 145.806 71.7801 145.797 71.7422 145.793C71.6074 145.768 71.4855 145.877 71.4855 146.012L71.4939 146.392ZM71.5191 147.96C71.5191 148.061 71.5906 148.149 71.6916 148.171C71.7379 148.183 71.7842 148.192 71.8348 148.2C71.9737 148.225 72.0999 148.116 72.0958 147.977L72.0871 147.593C72.0831 147.483 72.0032 147.395 71.8935 147.378C71.8516 147.374 71.8096 147.365 71.7674 147.357C71.6328 147.332 71.5107 147.441 71.5107 147.576L71.5191 147.96ZM71.5402 149.515C71.5402 149.625 71.6201 149.722 71.7254 149.747C71.7633 149.756 71.8053 149.764 71.8472 149.772C71.9948 149.798 72.1334 149.684 72.1294 149.532L72.121 149.187C72.1166 149.069 72.0284 148.972 71.9106 148.955C71.8768 148.95 71.8432 148.946 71.8096 148.938C71.6623 148.913 71.5275 149.026 71.5318 149.178L71.5402 149.515ZM72.1713 151.101L72.1629 150.755C72.1589 150.632 72.0703 150.54 71.9485 150.523C71.9106 150.519 71.8727 150.514 71.8348 150.506C71.6875 150.481 71.557 150.595 71.557 150.746C71.557 150.86 71.5613 150.991 71.5613 151.088C71.5613 151.197 71.6412 151.294 71.7506 151.32C71.7926 151.328 71.8389 151.337 71.8852 151.345C72.0368 151.366 72.1757 151.252 72.1713 151.101ZM74.7259 128.96C74.705 128.774 74.5577 128.648 74.4145 128.589C73.3077 128.129 69.4738 127.594 63.6575 127.446C62.6812 127.421 61.2083 127.404 60.2068 127.046C60.7916 126.911 61.6838 126.835 62.7275 126.805C62.9801 126.797 63.3253 126.738 63.1948 126.405C63.0475 126.034 62.5929 126.004 62.391 125.996C60.375 125.92 54.058 126.017 50.8848 126.464C50.7124 126.489 50.3672 126.557 50.3 126.797C50.2326 127.037 50.4936 127.142 50.7291 127.13C51.7477 127.067 53.1786 127.063 53.9487 127.227C53.1448 127.577 51.0029 127.809 50.0517 127.927C48.2883 128.142 47.2865 128.378 46.7943 128.568C46.6007 128.643 46.4112 128.77 46.4112 128.976C46.4112 129.183 46.6175 129.124 46.7521 129.086C47.4298 128.901 51.1585 128.108 60.5685 128.108C69.9788 128.108 73.7287 128.905 74.4061 129.09C74.5323 129.128 74.747 129.145 74.7259 128.96ZM71.2329 126.898C71.0477 127.16 71.3677 127.235 71.5654 127.261C72.8406 127.429 73.6949 127.606 74.2632 127.779C74.3682 127.813 74.5829 127.893 74.5829 127.695C74.5829 127.501 74.4145 127.358 74.2715 127.29C73.8633 127.096 73.0637 126.894 71.9147 126.704C71.759 126.675 71.4181 126.637 71.2329 126.898ZM71.6916 124.866C71.7549 125.144 72.0157 125.195 72.1421 125.22C72.487 125.283 72.7984 125.351 73.051 125.41C73.1983 125.444 73.4425 125.46 73.5476 125.237C73.6486 125.014 73.4593 124.904 73.2657 124.858C72.9541 124.782 72.5122 124.681 72.0324 124.596C71.8811 124.567 71.6285 124.588 71.6916 124.866ZM75.8961 123.998C75.7907 123.875 75.6099 123.909 75.5509 123.947C74.7806 124.495 74.3387 125.094 73.9599 126.122C73.9052 126.266 73.981 126.426 74.1243 126.472C74.2672 126.523 74.4061 126.451 74.4608 126.321C74.806 125.49 75.2395 124.866 75.8538 124.339C75.9675 124.246 75.9884 124.099 75.8961 123.998ZM71.8727 122.813C75.1342 122.607 77.2257 123.762 78.9851 123.762C80.3318 123.762 82.8779 122.181 82.8779 116.19C82.8779 109.483 80.4747 104.618 77.1626 104.618C76.7923 104.618 76.3758 104.677 76.098 104.723C75.9337 104.753 75.8454 104.938 75.9337 105.082C76.0937 105.352 76.2621 105.672 75.9843 105.988C75.7401 106.262 75.252 106.321 74.6755 106.148C74.4903 106.094 74.2967 106.199 74.3977 106.515C74.4397 106.65 74.545 106.738 74.6755 106.76C76.0179 106.966 77.2636 106.941 78.5852 106.675C78.7788 106.637 78.8418 106.389 78.6905 106.258C78.6442 106.216 78.5936 106.174 78.5389 106.136C78.4463 106.064 78.3242 106.056 78.2148 106.094C77.6467 106.292 76.9818 106.313 76.5946 106.283C76.7839 105.929 76.8177 105.52 76.6155 105.183C77.3478 104.997 78.3242 105.191 79.288 106.161C80.7062 107.582 82.213 111.076 82.213 116.186C82.213 120.469 80.5925 123.074 79.0186 123.074C77.3606 123.074 75.4918 122.05 72.3565 122.147C72.125 122.156 71.5697 122.231 71.3845 122.488C71.1993 122.746 71.5527 122.83 71.8727 122.813ZM79.5783 124.558C79.5195 124.487 79.3343 124.407 79.187 124.512C79.0733 124.596 79.0354 124.773 79.1364 124.904C79.4058 125.25 79.7551 125.532 80.1634 125.722C80.3989 125.831 80.7062 125.933 81.0682 125.966C81.2364 125.983 81.3628 125.857 81.3796 125.713C81.4048 125.486 81.1944 125.401 81.1229 125.393C80.521 125.321 79.9655 125.018 79.5783 124.558ZM83.8543 127.467C83.7909 127.324 83.5889 127.315 83.5218 127.341C82.8863 127.589 82.2298 127.712 81.5816 127.712C80.9041 127.712 80.2392 127.577 79.6121 127.307C78.4379 126.801 77.4995 125.878 76.9942 124.74C76.9312 124.6 76.7882 124.567 76.6534 124.639C76.5356 124.702 76.502 124.841 76.544 124.938C77.1542 126.358 78.358 127.484 79.8309 127.99C81.085 128.42 82.4317 128.361 83.7278 127.834C83.8794 127.775 83.9214 127.611 83.8543 127.467ZM84.2119 110.891C83.8627 110.828 83.5597 111.144 83.6228 111.494C83.6436 111.599 83.6607 111.709 83.6815 111.823C83.7322 112.114 83.9593 112.341 84.2498 112.383C88.6225 113.037 91.3831 116.186 91.3831 120.688C91.3831 123.391 89.6871 126.312 86.9517 126.312C85.1336 126.312 83.2229 124.95 82.6841 122.4C82.6381 122.189 82.3938 122.143 82.2465 122.328C82.116 122.501 82.116 122.725 82.1328 122.851C82.2254 123.45 82.4106 124.044 82.7767 124.858C82.3982 124.664 82.0194 124.133 81.7373 123.648C81.6279 123.462 81.3753 123.428 81.2112 123.572C81.0471 123.715 81.0807 123.909 81.1608 124.048C82.5747 126.485 84.9441 127.32 86.6444 127.32C90.0659 127.32 92.1111 123.989 92.1111 120.768C92.1195 115.212 88.3279 111.641 84.2119 110.891ZM83.8667 120.861C83.8667 123.222 85.2135 124.997 87.002 124.997C89.1905 124.997 90.2091 122.51 90.2091 120.423C90.2091 116.346 87.4398 114.365 84.6243 113.796C84.2877 113.728 83.9761 113.994 84.0056 114.339C84.014 114.474 84.0267 114.609 84.0308 114.748C84.0479 115.023 84.275 115.246 84.5444 115.237C86.7286 115.174 89.5566 116.835 89.5566 120.368C89.5566 122.24 88.698 124.23 86.9936 124.23C85.6469 124.23 84.5739 122.725 84.5739 120.726C84.5739 119.183 85.3902 118.252 86.1562 118.142C86.9349 118.032 87.4019 118.825 87.4818 119.327C87.263 119.685 87.0778 120.195 87.0778 120.583C87.0822 121.068 87.3513 121.291 87.5998 121.291C87.9616 121.291 88.3488 120.87 88.3488 119.938C88.3488 118.601 87.7344 117.257 86.3582 117.257C84.982 117.257 83.8667 118.871 83.8667 120.861ZM84.0858 116.397C84.1529 116.561 84.3676 116.637 84.536 116.532C84.7253 116.413 84.9273 116.317 85.1376 116.236C85.3188 116.169 85.2852 115.903 85.0914 115.891C84.8474 115.878 84.5739 115.887 84.3045 115.95C84.1613 115.984 83.9972 116.177 84.0858 116.397ZM86.577 119.529C86.6233 119.398 86.535 119.255 86.3961 119.255C86.0509 119.255 85.6891 119.803 85.6891 120.671C85.6891 122.531 86.9473 123.091 87.5365 122.767C87.7092 122.67 87.6754 122.417 87.4818 122.375C86.6024 122.176 86.1058 120.853 86.577 119.529ZM86.5266 108.412C85.8827 108.176 84.7968 107.923 83.9298 107.721C83.3913 107.599 82.8146 107.464 82.2254 107.316C82.0614 107.274 81.8258 107.291 81.8846 107.476C81.9436 107.662 82.1835 107.772 82.3938 107.822C82.6253 107.877 84.0183 108.201 84.3213 108.273C84.9232 108.421 85.3651 108.568 85.4788 108.821C85.5164 108.905 85.6174 108.948 85.71 108.943C85.9794 108.926 86.1814 108.91 86.3961 108.855C86.7075 108.779 86.7329 108.492 86.5266 108.412ZM86.4803 105.925C86.4803 106.102 86.6276 106.212 86.7159 106.25C86.9222 106.338 87.1114 106.363 87.1748 106.292C87.2925 106.161 87.0275 105.883 86.7497 105.786C86.636 105.748 86.4803 105.761 86.4803 105.925ZM86.6065 107.674C86.7833 107.738 86.939 107.801 87.0778 107.868C87.1537 107.906 87.2882 107.89 87.3305 107.729C87.364 107.603 87.3009 107.506 87.2251 107.455C87.1201 107.384 86.9728 107.308 86.8001 107.236C86.678 107.185 86.5182 107.19 86.4635 107.346C86.3961 107.544 86.5014 107.636 86.6065 107.674ZM85.041 106.987C85.041 106.789 84.8011 106.684 84.6749 106.654C84.4854 106.612 82.2677 106.127 81.3249 105.87C81.127 105.815 80.8619 105.824 80.9924 106.03C81.1229 106.237 81.489 106.368 81.649 106.414C82.3056 106.595 83.8499 106.958 84.6202 107.139C84.8263 107.19 85.041 107.185 85.041 106.987ZM77.3351 102.464C77.2341 102.367 77.0576 102.388 76.9858 102.498C76.9187 102.594 76.9312 102.721 77.0154 102.797C78.7536 104.378 81.9393 105.073 84.2918 105.584C84.4643 105.621 84.6327 105.659 84.7968 105.693C84.9105 105.718 85.045 105.664 85.0366 105.516C85.0283 105.373 84.9105 105.297 84.8179 105.276C84.5991 105.225 84.4391 105.191 84.2076 105.137C81.8088 104.601 78.8881 103.939 77.3351 102.464ZM77.3438 98.3241C77.2596 98.2903 77.1586 98.2565 77.0321 98.2229C76.8681 98.1763 76.7081 98.3114 76.7292 98.48C76.7376 98.5643 76.746 98.6487 76.7544 98.7245C76.7671 98.8721 76.8765 98.9901 77.0197 99.0237C77.1039 99.0448 77.1838 99.0659 77.2636 99.0913C77.4193 99.1417 77.5793 99.0153 77.5709 98.851C77.5666 98.7708 77.5625 98.695 77.5582 98.6149C77.5498 98.4884 77.4656 98.3745 77.3438 98.3241ZM76.5608 97.1985C76.5735 97.2659 76.5819 97.3333 76.5946 97.405C76.6155 97.5482 76.7251 97.6622 76.864 97.6874C76.9523 97.7042 77.0365 97.7253 77.1163 97.7464C77.3059 97.797 77.4656 97.5989 77.3901 97.4175C77.2975 97.1941 77.1291 97.0382 76.8808 96.9413C76.7081 96.8695 76.5315 97.0171 76.5608 97.1985ZM75.5592 100.078C70.0841 100.078 63.7209 103.142 44.2522 103.142C42.6152 103.142 35.7092 103.02 34.3836 103.02C33.9163 103.02 33.4955 103.063 33.1503 103.126C32.7926 103.193 32.6454 103.611 33.1167 103.792C33.3314 103.876 33.5922 103.922 33.8868 103.973C34.0048 103.994 34.1226 103.944 34.2068 103.859C34.5265 103.547 35.2714 103.56 36.3067 103.56C37.9732 103.56 42.7753 103.674 44.2522 103.674C63.481 103.674 70.164 100.727 74.6376 100.727C75.0543 100.727 76.0263 100.782 76.0263 101.368C76.0263 101.857 75.2395 102.186 75.5129 103.788C75.5381 103.939 75.6814 104.053 75.8454 104.024C76.0095 103.994 76.1064 103.838 76.081 103.67C75.8411 102.278 77.4236 101.431 77.4236 100.668C77.4236 100.158 76.2537 100.078 75.5592 100.078ZM42.6152 100.019C41.1001 100.019 36.5761 99.9176 34.9137 99.9006C34.7244 99.9006 34.5685 100.019 34.5685 100.246C34.5685 100.474 34.7201 100.617 34.9094 100.617C37.0012 100.63 41.3695 100.731 44.1767 100.731C61.9743 100.731 70.063 97.953 74.3641 97.6495C74.5702 97.6368 74.9617 97.5737 74.9617 97.2068C74.9617 96.84 74.5745 96.84 74.3766 96.8655C68.67 97.6157 60.8926 100.019 42.6152 100.019ZM46.3061 63.2323L46.4071 63.5274C46.4829 63.7426 46.7396 63.8268 46.9289 63.6961L72.0452 46.0745C72.3186 45.8807 72.1841 45.4505 71.8472 45.4505C71.6033 45.4505 71.5023 45.4505 71.355 45.4589C71.2077 45.4673 71.0604 45.5222 70.9088 45.6235C70.7659 45.7204 48.8184 61.1624 46.4323 62.8403C46.3061 62.9289 46.2555 63.0891 46.3061 63.2323ZM46.4323 62.2502L69.1078 46.3022C69.297 46.1671 69.1541 45.8636 68.931 45.9354C67.7483 46.3147 66.5616 46.9092 65.4126 47.7018L45.9441 61.3985C45.818 61.487 45.7673 61.6473 45.818 61.7907L45.919 62.0815C45.9861 62.2964 46.2471 62.3809 46.4323 62.2502ZM46.807 64.6994L46.9037 64.9777C46.9795 65.1926 47.2362 65.2771 47.4254 65.1463L74.2924 46.3442C74.5282 46.1798 74.4692 45.8173 74.1957 45.7331C74.0525 45.6909 74.0568 45.6866 73.9136 45.653C73.7539 45.6148 73.5476 45.636 73.354 45.7751L46.9332 64.3074C46.807 64.3959 46.7564 64.5562 46.807 64.6994ZM78.3369 56.4115C78.5432 56.268 78.6104 55.9645 78.6315 55.8717C78.7029 55.5641 78.3621 55.3281 78.1054 55.5092L70.2482 60.9263C70.1472 60.994 70.0966 61.112 70.1009 61.2341C70.105 61.3015 70.1093 61.3649 70.1093 61.4323C70.1177 61.7022 70.4207 61.8581 70.6437 61.7022C70.6437 61.7022 78.1306 56.5506 78.3369 56.4115ZM77.3394 57.8953C75.2858 59.3077 70.3995 62.6676 70.2103 62.7981C69.9704 62.9627 69.8778 63.2451 69.8526 63.3209C69.7473 63.633 70.0966 63.8986 70.3703 63.7131C70.3703 63.7131 76.9439 59.2021 77.2804 58.9704C77.6172 58.7384 77.794 58.4433 77.8444 58.3128C77.9792 57.9966 77.6213 57.7015 77.3394 57.8953ZM78.6989 54.3245C78.8462 54.2235 78.9177 54.1096 78.9304 53.9452C78.9388 53.8524 78.9388 53.8315 78.9428 53.7387C78.9596 53.4563 78.6399 53.2792 78.4043 53.4392L69.9747 59.2654C69.8567 59.3456 69.802 59.4888 69.8358 59.6279C69.8526 59.6913 69.8694 59.7628 69.8821 59.8304C69.9368 60.0665 70.2103 60.1718 70.4082 60.037L78.6989 54.3245ZM78.9176 52.0228C78.9093 51.9302 78.9093 51.9302 78.8965 51.8417C78.867 51.5845 78.5724 51.4538 78.3621 51.6013C76.6618 52.7817 70.7068 56.9088 69.4822 57.7562C69.3517 57.8447 69.3014 58.0134 69.356 58.1609C69.3812 58.2242 69.4064 58.2957 69.4359 58.3675C69.5158 58.574 69.7684 58.6542 69.9493 58.5277L78.6818 52.4909C78.8546 52.3769 78.9344 52.2042 78.9176 52.0228ZM69.6127 61.209C69.558 60.37 69.3349 59.3919 68.8803 58.2494C68.8508 58.1736 68.8173 58.0892 68.7753 57.9922C68.3164 56.8793 67.1887 54.4596 65.1264 54.4596C64.5583 54.4596 63.9987 54.6494 63.4599 55.0243L56.4528 59.8935C55.7711 60.3657 55.4974 61.2425 55.7879 62.0225C55.7879 62.0225 58.031 68.0425 58.3844 68.9784C58.7337 69.9186 59.9499 70.6352 61.103 69.8426C61.8985 69.2989 67.7735 65.2771 67.7735 65.2771C68.7794 64.5857 69.7516 63.3588 69.6127 61.209ZM78.6231 50.4166C78.5979 50.3281 78.5725 50.2396 78.5429 50.1554C78.4715 49.9361 78.2107 49.8432 78.0212 49.9783L68.8592 56.3441C68.7163 56.441 68.67 56.6305 68.7498 56.7824C68.7877 56.8498 68.8216 56.9215 68.8552 56.9889C68.9478 57.1787 69.1833 57.2377 69.356 57.1197L78.4842 50.7918C78.6063 50.7076 78.661 50.5558 78.6231 50.4166ZM78.0255 48.9074C77.9792 48.8232 77.9329 48.7387 77.8866 48.6588C77.7856 48.4858 77.5582 48.4311 77.3941 48.5449L68.0429 55.0582C67.8829 55.1678 67.845 55.3955 67.9671 55.5471C68.0177 55.6148 68.0724 55.6822 68.1187 55.7496C68.2281 55.8971 68.4344 55.9266 68.5858 55.8254L77.9159 49.3416C78.0548 49.2447 78.1054 49.0592 78.0255 48.9074ZM77.1163 47.5795C77.0492 47.5037 76.9775 47.4278 76.906 47.3561C76.7923 47.2381 76.603 47.2254 76.4682 47.3223L66.9234 53.9874C66.7257 54.1266 66.7298 54.4174 66.9277 54.5522C67.0035 54.6028 67.075 54.6578 67.1424 54.7124C67.2602 54.8053 67.4242 54.8053 67.5463 54.7208L77.0576 48.0979C77.2257 47.9758 77.2512 47.7354 77.1163 47.5795ZM75.8706 46.5088C75.7696 46.4454 75.6686 46.3823 75.5636 46.3233C75.4499 46.26 75.3066 46.2684 75.2016 46.3442L65.177 53.3591C64.9117 53.5448 65.0297 53.9579 65.3495 53.9831C65.4673 53.9915 65.5303 53.9999 65.6568 54.021C65.8125 54.0465 65.9134 54.0337 66.0396 53.9452L75.8749 47.0778C76.0769 46.9387 76.0726 46.6395 75.8706 46.5088ZM47.3077 66.1667L47.3962 66.4279C47.4677 66.6429 47.7287 66.7273 47.9139 66.5966L55.043 61.6178C55.1354 61.5547 55.186 61.445 55.1903 61.3311C55.1944 61.1499 55.2196 60.9729 55.2618 60.7999C55.3165 60.5849 55.0766 60.4206 54.8955 60.547L47.4298 65.7703C47.3077 65.8629 47.2573 66.0232 47.3077 66.1667ZM47.8085 67.6378L47.8927 67.8782C47.9642 68.0931 48.2252 68.1773 48.4104 68.0468L55.4259 63.1609C55.552 63.0723 55.6067 62.9077 55.552 62.7602C55.5228 62.6844 55.4933 62.5959 55.4595 62.5114C55.3839 62.3008 55.127 62.2206 54.9418 62.3471L47.9347 67.2374C47.8085 67.3343 47.7579 67.4902 47.8085 67.6378ZM48.3094 69.1048L48.385 69.3284C48.4567 69.5434 48.7175 69.6276 48.9026 69.5012L55.9563 64.6025C56.0865 64.5139 56.1371 64.3496 56.0824 64.2021L55.9982 63.9744C55.9184 63.7635 55.6658 63.6836 55.4806 63.8141L48.4356 68.7212C48.3135 68.8014 48.2588 68.9616 48.3094 69.1048ZM48.8101 70.5719L48.8818 70.7744C48.9533 70.9893 49.2143 71.0735 49.3992 70.9471L56.4948 66.0316C56.6253 65.9431 56.6757 65.7787 56.621 65.6312L56.5411 65.4203C56.4612 65.2097 56.2086 65.1295 56.0234 65.2603L48.9365 70.1842C48.8144 70.2684 48.7597 70.4287 48.8101 70.5719ZM49.3109 72.0432L49.374 72.2287C49.4455 72.4437 49.7065 72.5281 49.8917 72.4017L57.0252 67.4691C57.1554 67.3806 57.2061 67.212 57.1514 67.0687L57.0799 66.8749C56.9998 66.664 56.7474 66.5839 56.5663 66.7146L49.4414 71.6512C49.3153 71.7354 49.2603 71.8957 49.3109 72.0432ZM49.8118 73.5103L49.8706 73.6789C49.9423 73.8939 50.2031 73.9784 50.3883 73.8517L57.5637 68.9026C57.6942 68.8141 57.7449 68.6454 57.6899 68.5019L57.6268 68.3292C57.5469 68.1183 57.2943 68.0385 57.1135 68.169L49.9423 73.1183C49.8159 73.2068 49.7612 73.3671 49.8118 73.5103ZM50.3125 74.9817L50.3631 75.1292C50.4346 75.3442 50.6956 75.4284 50.8808 75.3019L58.2035 70.2643C58.3633 70.1547 58.4055 69.927 58.2834 69.7751C58.2539 69.7372 58.2246 69.6993 58.1951 69.6571C58.0898 69.5055 57.8837 69.4589 57.7278 69.5645L50.4389 74.5897C50.3168 74.6739 50.2621 74.8341 50.3125 74.9817ZM50.8133 76.4487L50.8596 76.5795C50.9311 76.7944 51.1921 76.8786 51.3773 76.7522L59.7143 71.0316C59.8911 70.9092 59.8321 70.6436 59.6217 70.5973C59.4996 70.5719 59.3862 70.5383 59.2892 70.5004C59.1842 70.4622 59.0621 70.4709 58.9695 70.534L50.9438 76.0567C50.8177 76.1409 50.763 76.3052 50.8133 76.4487ZM51.3142 77.9157L51.3521 78.0254C51.4236 78.2403 51.6803 78.3245 51.8698 78.1981C54.8494 76.1577 74.8144 62.4862 75.3066 62.1489C75.8411 61.7823 76.3379 61.154 76.5145 60.8716C76.6534 60.6483 76.3926 60.3952 76.1779 60.5427L51.4447 77.5194C51.3183 77.6123 51.2636 77.7725 51.3142 77.9157ZM51.8151 79.3871L51.8487 79.4797C51.9202 79.6947 52.1769 79.7791 52.3664 79.6527L74.1243 64.7879C74.2169 64.7248 74.2672 64.6236 74.2715 64.5139C74.2756 64.3959 74.2924 64.2822 74.3135 64.1682C74.3558 63.9617 74.1159 63.81 73.9431 63.9322L51.9454 78.9908C51.8192 79.0793 51.7645 79.2396 51.8151 79.3871ZM52.3158 80.8542L52.3409 80.93C52.4127 81.1449 52.6693 81.2294 52.8586 81.1027L74.5323 66.331C74.6796 66.2298 74.7302 66.0189 74.6333 65.8713C74.6124 65.8418 74.5956 65.8123 74.5786 65.7828C74.4776 65.6144 74.2545 65.5638 74.0947 65.6775L52.4506 80.4622C52.3201 80.5464 52.2695 80.7107 52.3158 80.8542ZM85.3523 75.0112C85.1926 74.8552 85.0031 74.9267 84.8853 75.0068L76.3041 80.7445C76.1527 80.8458 76.1232 81.0732 76.2662 81.2123C76.3758 81.3179 76.5272 81.339 76.6493 81.2589L85.306 75.4833C85.4744 75.3653 85.4996 75.1503 85.3523 75.0112ZM77.3606 81.8742C77.2089 81.9755 77.1838 82.1904 77.3059 82.3253C77.432 82.4604 77.6172 82.4181 77.7393 82.338L86.5139 76.495C86.6866 76.3813 86.7118 76.162 86.5602 76.0188C86.4004 75.871 86.2193 75.9598 86.1058 76.0356L77.3606 81.8742ZM84.1193 73.974C83.9636 73.8476 83.7909 73.8898 83.6775 73.9656L75.2519 79.6148C75.1006 79.7158 75.0838 79.9435 75.2016 80.0658C75.3321 80.205 75.5257 80.1922 75.6475 80.1121L84.0898 74.4673C84.2582 74.3536 84.2793 74.1048 84.1193 73.974ZM82.9156 72.9623L82.8736 72.9244C82.7683 72.8359 82.621 72.8273 82.5075 72.9033L74.2293 78.468C74.0609 78.5817 74.0357 78.8137 74.1746 78.9613C74.3135 79.1088 74.4987 79.075 74.6333 78.9865L82.8947 73.4472C83.0588 73.3332 83.0715 73.0928 82.9156 72.9623ZM81.7078 71.9463L81.649 71.9C81.5437 71.8115 81.3964 71.8029 81.2827 71.8789L73.1731 77.3383C73.0047 77.452 72.9795 77.6837 73.1184 77.8315C73.2573 77.9791 73.4466 77.962 73.5811 77.8735L81.6826 72.4312C81.851 72.3215 81.8634 72.0771 81.7078 71.9463ZM80.4999 70.9346L80.4285 70.8756C80.3231 70.7871 80.1758 70.7784 80.0624 70.8545L72.125 76.2126C71.961 76.3263 71.9314 76.5583 72.0703 76.7059C72.2052 76.8534 72.4112 76.8534 72.5417 76.7649L80.4747 71.4236C80.6432 71.3096 80.6556 71.0651 80.4999 70.9346ZM79.2964 69.9227L79.2079 69.8512C79.1028 69.7627 78.9556 69.754 78.8418 69.8342L71.0729 75.0913C70.9088 75.205 70.8793 75.437 71.0182 75.5846L71.0561 75.6265C71.1655 75.7446 71.3423 75.7657 71.4771 75.6731L79.2669 70.4119C79.4394 70.2979 79.4521 70.0534 79.2964 69.9227ZM78.0927 68.9153L77.9917 68.8309C77.8866 68.7423 77.7393 68.7339 77.6256 68.8141L70.0294 73.9656C69.8651 74.0794 69.8358 74.3114 69.9747 74.4589L70.0251 74.5136C70.1345 74.6316 70.3113 74.6527 70.4458 74.5601L78.0675 69.3999C78.2359 69.2862 78.2484 69.0458 78.0927 68.9153ZM76.8932 67.9034L76.7798 67.8065C76.6745 67.7179 76.5272 67.7095 76.4135 67.7897L68.9981 72.8316C68.8216 72.9496 68.7961 73.1984 68.9434 73.35C68.9562 73.3627 68.9729 73.3795 68.9857 73.3923C69.0991 73.5146 69.2886 73.5314 69.4232 73.4386L76.8681 68.3882C77.0365 68.2786 77.0492 68.0341 76.8932 67.9034ZM75.6938 66.8958L75.5636 66.7864C75.4583 66.6978 75.311 66.6892 75.1973 66.7693L67.4031 72.0812C67.2266 72.2035 67.2853 72.4775 67.4957 72.5113C67.6051 72.5281 67.702 72.5533 67.7903 72.5787C67.8913 72.6082 67.9966 72.5955 68.0849 72.5365L75.6686 67.3806C75.8327 67.271 75.8454 67.0265 75.6938 66.8958ZM52.8166 82.3253L52.8377 82.3802C52.9092 82.5952 53.1659 82.6794 53.3511 82.553C54.8031 81.5664 60.0679 77.9875 60.9895 77.3592C61.0778 77.3001 61.1284 77.2032 61.1368 77.0979C61.1452 77.0051 61.1579 76.9081 61.1788 76.8155C61.2251 76.6046 60.9936 76.4444 60.8168 76.5667L52.9471 81.9292C52.8207 82.0177 52.7703 82.1777 52.8166 82.3253ZM53.3132 83.7799L53.3384 83.8557C53.4058 84.0582 53.65 84.138 53.8265 84.02L61.3009 78.9486C61.4314 78.86 61.4861 78.6914 61.4314 78.5438L61.3683 78.3752C61.3136 78.2276 61.1368 78.1729 61.0104 78.2615L53.4353 83.4087C53.3175 83.4888 53.2669 83.6407 53.3132 83.7799ZM53.8349 85.3059C53.9067 85.5041 54.1466 85.5883 54.3234 85.4703L61.8397 80.382C61.9699 80.2935 62.0249 80.1248 61.97 79.9773L61.9153 79.8297C61.8606 79.6822 61.6838 79.6273 61.5535 79.7117L53.9782 84.8506C53.852 84.935 53.7678 85.1034 53.8349 85.3059ZM54.3318 86.7562C54.3905 86.9543 54.6431 87.0385 54.8199 86.9205L62.3615 81.828C62.4876 81.7435 62.5929 81.6087 62.496 81.3853C62.4034 81.1617 62.1806 81.107 62.0038 81.2294L54.4747 86.3219C54.3569 86.4021 54.2727 86.558 54.3318 86.7562ZM54.824 88.2062C54.8871 88.4087 55.1354 88.4888 55.3122 88.3708L62.8875 83.2698C63.0137 83.1854 63.1147 83.0251 63.0348 82.844C62.9465 82.6374 62.7191 82.5657 62.5423 82.688L54.9672 87.8017C54.8494 87.8775 54.7609 88.0039 54.824 88.2062ZM55.3206 89.6564C55.3923 89.8757 55.6322 89.939 55.8087 89.821L63.4093 84.7114C63.5357 84.6272 63.6492 84.4881 63.582 84.2899C63.5062 84.0749 63.2663 84.0116 63.0895 84.134L55.5185 89.2306C55.3964 89.315 55.2491 89.4499 55.3206 89.6564ZM55.8298 91.153C55.8929 91.3387 56.1036 91.4018 56.2592 91.2964L63.9776 86.1194C64.091 86.0436 64.1752 85.8877 64.1037 85.6979C64.0323 85.5082 63.826 85.4535 63.6703 85.5588L55.9647 90.7399C55.855 90.8116 55.7667 90.9675 55.8298 91.153ZM56.3264 92.6032C56.3938 92.7803 56.6001 92.852 56.7558 92.7508L64.5204 87.557C64.6341 87.4812 64.7224 87.3336 64.6509 87.1566C64.5794 86.9752 64.3731 86.9121 64.2174 87.0174L56.4653 92.2155C56.3518 92.287 56.2549 92.4305 56.3264 92.6032ZM56.8189 94.0535C56.8736 94.2349 57.0924 94.3023 57.248 94.201L65.0506 88.9945C65.1643 88.9187 65.2528 88.788 65.1854 88.6109C65.118 88.4298 64.9076 88.3664 64.7519 88.472L56.9619 93.6826C56.8609 93.75 56.7683 93.8764 56.8189 94.0535ZM57.3154 95.5078C57.3745 95.6892 57.5889 95.7566 57.7449 95.6554L65.5894 90.4323C65.6987 90.3606 65.7829 90.2466 65.7366 90.0779C65.6863 89.8925 65.4589 89.8167 65.2991 89.9263L57.4879 95.1412C57.3785 95.2086 57.2567 95.3267 57.3154 95.5078ZM60.9094 95.0484C60.9094 94.8334 60.7329 94.7785 60.5601 94.8924C60.4719 94.9515 58.2287 96.4437 58.0646 96.5533C57.8962 96.663 57.7784 96.8779 57.8458 97.0509C57.913 97.2236 58.0519 97.228 58.2834 97.072C58.5149 96.9158 60.4045 95.664 60.5769 95.55C60.8 95.4025 60.9094 95.2845 60.9094 95.0484ZM60.5222 96.722C60.4383 96.781 58.6495 97.9657 58.5022 98.0626C58.3549 98.1595 58.2709 98.3155 58.376 98.4462C58.4813 98.581 58.7085 98.5686 58.8262 98.4885C58.9232 98.4251 60.3541 97.4768 60.5393 97.3501C60.7245 97.228 60.9094 97.1056 60.9094 96.836C60.9094 96.6208 60.7034 96.604 60.5222 96.722ZM67.6852 91.4102C67.5715 91.4862 63.3421 94.2896 63.1315 94.4287C62.9254 94.5679 62.8201 94.7238 62.8832 94.8965C62.9338 95.0441 63.1231 95.0906 63.3253 94.9683C64.2258 94.4287 66.1322 93.2779 66.5362 93.2313C66.3805 93.5475 64.5204 94.922 63.7417 95.4867C63.5357 95.6386 63.363 95.765 63.3925 95.9715C63.4136 96.1402 63.5693 96.2921 63.8343 96.115C65.1012 95.2761 68.7458 92.8731 68.9099 92.7635C69.1078 92.6327 69.1709 92.4094 68.9142 92.169C68.7247 91.9919 68.1439 91.4397 68.1439 91.4397C68.0134 91.3132 67.8325 91.3132 67.6852 91.4102ZM68.165 75.4116L67.3779 74.5642C67.2686 74.4462 67.0918 74.4294 66.9613 74.5179L63.2411 77.0389C63.119 77.1231 63.0768 77.2622 63.1442 77.3887C63.2116 77.5153 63.38 77.5952 63.5482 77.511C64.1836 77.1991 65.2274 76.5034 65.8883 76.3263C65.5642 76.8112 64.2846 77.8524 64.2846 77.8524C64.1628 77.9369 64.1081 78.1139 64.1923 78.2403C64.31 78.4301 64.5499 78.3457 64.7308 78.2236L68.1144 75.9343C68.2828 75.812 68.308 75.5675 68.165 75.4116ZM89.0221 77.2666C88.7614 77.4352 77.9329 84.6145 77.9329 84.6145C77.8108 84.6946 77.7393 84.8801 77.8907 85.0024C78.0423 85.1245 78.2947 85.0614 78.5137 84.9264C78.7325 84.7915 80.4285 83.7249 81.0891 83.5901C80.8998 83.9274 79.2417 85.1919 79.1112 85.3186C78.9807 85.4451 78.9217 85.6221 79.0481 85.7442C79.1743 85.8709 79.389 85.8119 79.5236 85.7234C79.5236 85.7234 90.3101 78.5777 90.5077 78.4426C90.7057 78.3121 90.874 78.135 90.7519 77.958C90.6214 77.7682 90.2762 77.9241 90.0323 78.059C89.7881 78.194 86.4719 80.2765 85.8196 80.4494C86.2025 79.8972 89.4724 77.6418 89.6576 77.5067C89.8471 77.3762 89.9059 77.1696 89.7672 77.06C89.6367 76.9547 89.2831 77.0979 89.0221 77.2666ZM81.9013 57.4189C81.7457 57.3474 81.5605 57.4232 81.4974 57.6002C81.2575 58.3084 80.9588 58.9408 80.6556 59.2021C80.8662 58.0767 81.1524 56.8035 81.2407 55.8254C81.2575 55.6483 81.1692 55.5135 81.0219 55.4713C80.8955 55.4377 80.7274 55.5262 80.6935 55.699C80.1212 58.7679 78.602 61.8286 76.3125 64.4129C76.2074 64.531 76.182 64.7543 76.3463 64.8724C76.5104 64.9904 76.7208 64.8469 76.809 64.7416C77.533 63.9238 78.56 62.6633 79.2713 61.9973C79.1703 62.6506 78.1011 64.3748 77.3478 65.2221C77.2888 65.2855 77.2005 65.5343 77.3606 65.6648C77.5457 65.8166 77.7393 65.6144 77.7856 65.5638C79.9276 63.1059 81.388 60.37 82.0573 57.8363C82.1204 57.6465 82.057 57.4906 81.9013 57.4189ZM106.079 65.5762C114.45 59.9062 118.776 49.5777 115.523 43.0224C115.523 43.0224 103.815 19.9202 103.714 19.7179C103.613 19.5197 103.361 19.4776 103.188 19.5956C103.015 19.7136 94.6657 25.586 94.6657 25.586C94.5354 25.6789 94.4932 25.8475 94.5606 25.9907C94.5606 25.9907 104.754 47.2971 106.113 50.1427C107.472 52.9841 106.492 56.8709 103.264 59.0716C100.112 61.2214 96.7112 60.4964 95.2843 57.5496C94.7878 56.5211 84.376 33.5368 84.2877 33.343C84.1992 33.1492 83.9888 33.0985 83.812 33.2209C83.7194 33.284 75.2227 39.2618 75.2227 39.2618C75.0963 39.3503 75.05 39.5149 75.1131 39.6541L77.575 45.3579C77.6424 45.5095 77.6004 45.6909 77.4656 45.7878C77.2931 45.9143 77.1415 45.8807 76.9523 45.7415C75.5297 44.6876 73.8505 44.1773 72.0116 44.1773C69.6631 44.1773 67.0961 45.0206 64.6888 46.6774L44.4417 60.9179C44.324 60.9981 44.2777 61.1499 44.324 61.2848L56.9957 98.421C57.0461 98.5727 57.1977 98.6696 57.3577 98.6528L57.4416 98.6444C57.6607 98.6192 57.7995 98.3999 57.7278 98.1934L45.2118 61.5292C45.1782 61.428 45.2118 61.3143 45.3003 61.2509L65.1307 47.3012C67.3695 45.7583 69.7473 44.9405 72.0032 44.9405C74.4145 44.9405 76.4219 45.8847 77.7477 47.5838C78.1685 48.1233 78.5262 48.743 78.7999 49.4301C79.0143 49.9697 79.1743 50.539 79.2796 51.1292C79.9739 54.974 78.4336 59.7798 75.2057 63.4221C74.8816 63.7846 74.7175 64.2738 74.7554 64.7584C74.7892 65.2433 75.0248 65.7029 75.3992 66.0148L87.461 76.1409C87.5197 76.1915 87.5492 76.2633 87.5449 76.3391C87.5408 76.4149 87.5029 76.4866 87.4355 76.5288L77.5961 83.0505C77.4995 83.1136 77.3689 83.1012 77.2847 83.0126L68.468 73.5482C68.1271 73.1814 67.643 72.9707 67.1424 72.9707C66.7804 72.9707 66.4268 73.0804 66.1281 73.2826L62.4077 75.8036C61.7133 76.2757 61.4314 77.1569 61.726 77.9453L66.3342 90.2931C66.3721 90.3985 66.3342 90.5165 66.2416 90.5798L62.2058 93.2524C61.6965 93.5897 61.3935 94.1547 61.3935 94.766V97.8309C61.3935 98.0331 61.5703 98.1934 61.7723 98.1722L61.8522 98.1639C62.0249 98.1427 62.1551 97.9993 62.1551 97.8222V94.766C62.1551 94.4119 62.3319 94.0873 62.6265 93.8932L67.1169 90.9169C67.2434 90.8327 67.2937 90.6768 67.239 90.5333L62.4413 77.6713C62.2732 77.2159 62.4329 76.7059 62.8369 76.436L66.5573 73.9193C66.9867 73.6283 67.5547 73.6917 67.9083 74.071L77.1207 83.961C77.2301 84.0749 77.4025 84.0961 77.533 84.0116L88.6225 76.6637C88.7067 76.609 88.7614 76.5161 88.7654 76.4108C88.7698 76.3096 88.7275 76.2126 88.6517 76.1452L75.8874 65.4287C75.6351 65.2181 75.4962 64.9059 75.5129 64.5689C75.5257 64.3201 75.6391 64.0881 75.8035 63.8986C78.501 60.8421 80.1423 56.8877 80.2181 53.3044C80.2221 53.0093 80.3442 52.9124 80.5127 52.8786C80.6811 52.845 80.8367 52.904 80.9166 53.0895C81.0682 53.4392 84.4938 61.3733 85.4238 63.519C86.3498 65.6648 88.1974 68.5231 91.6736 69.518C95.6463 70.6563 100.667 69.2399 106.079 65.5762ZM118.515 50.5515C118.528 50.248 118.073 50.2101 118.04 50.5135C117.644 54.0589 116.31 57.6341 115.022 58.57C116.272 56.0615 117.126 53.6333 117.455 51.323C117.497 51.0195 117.047 50.9437 116.988 51.2472C115.54 58.3463 110.288 63.5992 106.483 66.1751C102.889 68.6075 99.4003 70.0702 96.2818 70.4917C95.9788 70.534 96.0167 70.9809 96.324 70.9682C99.817 70.825 103.84 68.6917 107.38 66.7864C107.005 67.3681 105.52 68.3714 103.651 69.3157C103.377 69.4549 103.563 69.868 103.844 69.754C105.271 69.1977 106.668 68.464 108.002 67.562C114.265 63.3209 118.263 56.4789 118.515 50.5515ZM32.8389 115.49C32.8389 118.585 35.2335 121.299 38.1037 121.299C40.877 121.299 41.9925 118.859 41.9925 116.945C41.9925 115.279 40.8351 113.981 39.6776 113.821C40.3637 114.474 40.9907 115.17 40.9907 116.624C40.9907 118.209 40.0818 120.06 37.8175 120.06C35.6545 120.06 33.6596 117.813 33.6596 115.495C33.6596 113.615 34.2068 112.556 34.7285 111.688C33.8026 111.983 32.8389 113.517 32.8389 115.49ZM54.4452 120.663C55.489 120.591 56.7306 120.423 57.1977 120.187C56.8062 120.031 55.4638 119.938 54.3569 120.014C53.0059 120.107 52.0087 120.271 51.4867 120.558C51.9286 120.701 53.0817 120.756 54.4452 120.663ZM105.65 64.9398C101.601 67.6841 97.7379 69.1303 94.4764 69.1303C90.6593 69.1303 87.8522 67.1361 86.1226 63.2072L83.1219 56.2596L82.52 54.8643L76.039 39.8647C75.9927 39.7594 76.0263 39.637 76.1232 39.5696C76.1232 39.5696 83.4671 34.4053 83.5805 34.3252C83.6986 34.2453 83.8667 34.2662 83.9385 34.4224C83.9553 34.4643 92.8267 53.9874 94.5354 57.7521C96.3449 61.7317 100.671 61.8243 103.689 59.7038C106.79 57.5244 108.604 53.5321 106.656 49.5103C105.663 47.4658 95.499 26.1805 95.499 26.1805C95.4487 26.0752 95.4823 25.9444 95.5789 25.877C95.5789 25.877 102.889 20.7381 103.02 20.6453C103.15 20.5526 103.298 20.5863 103.373 20.7338C103.428 20.8393 114.841 43.3638 114.841 43.3638C117.93 49.5947 113.722 59.4763 105.65 64.9398ZM115.3 49.4472C115.321 49.2447 115.098 49.1055 114.93 49.2195L107.994 53.8905C107.914 53.9452 107.863 54.0253 107.851 54.1179C107.838 54.2108 107.821 54.2993 107.805 54.3878C107.762 54.5987 107.994 54.7547 108.171 54.6323L115.119 49.9613C115.203 49.9066 115.258 49.8137 115.27 49.7168C115.279 49.6326 115.292 49.5398 115.3 49.4472ZM114.993 47.276L108.082 51.9427C107.982 52.0101 107.927 52.1325 107.935 52.2548C107.939 52.3306 107.944 52.4064 107.948 52.4866C107.956 52.672 108.162 52.7776 108.318 52.6763L115.224 48.0221C115.321 47.9547 115.38 47.845 115.38 47.727C115.376 47.6385 115.376 47.55 115.367 47.4658C115.359 47.276 115.149 47.1707 114.993 47.276ZM114.765 45.5222C113.545 46.3485 108.823 49.5441 107.767 50.2607C107.641 50.3449 107.59 50.5011 107.636 50.6443C107.657 50.7076 107.674 50.7751 107.691 50.8381C107.733 50.9984 107.922 51.0658 108.057 50.9732L115.039 46.26C115.153 46.1842 115.212 46.0491 115.186 45.9143C115.169 45.8341 115.153 45.7499 115.136 45.6698C115.102 45.5095 114.909 45.4294 114.765 45.5222ZM96.7867 26.8256L103.276 22.2599C103.415 22.163 103.462 21.9775 103.386 21.8257L103.247 21.5601C103.154 21.3746 102.914 21.3156 102.746 21.4336L96.2607 25.9907C96.122 26.0879 96.0757 26.269 96.1472 26.4209L96.2777 26.6949C96.3744 26.8847 96.6143 26.9477 96.7867 26.8256ZM97.4601 28.2377L103.983 23.6596C104.122 23.5626 104.169 23.3771 104.093 23.2253L103.916 22.8796C103.823 22.6942 103.584 22.6351 103.415 22.7532L96.9088 27.3314C96.7743 27.4283 96.7237 27.6053 96.7951 27.7572L96.9595 28.1029C97.0477 28.2968 97.2876 28.3601 97.4601 28.2377ZM98.1378 29.6501L104.695 25.0592C104.833 24.9622 104.88 24.7767 104.804 24.6249L104.636 24.2961C104.543 24.1106 104.303 24.0516 104.135 24.1696L97.5906 28.7605C97.4517 28.8574 97.4054 29.0388 97.4771 29.1907L97.6328 29.5153C97.7254 29.7091 97.9653 29.7724 98.1378 29.6501ZM98.8111 31.0624L105.402 26.4629C105.54 26.366 105.587 26.1805 105.511 26.0246L105.355 25.7127C105.263 25.527 105.023 25.468 104.855 25.586L98.2767 30.1896C98.1378 30.2866 98.0915 30.4679 98.163 30.6198L98.3103 30.9274C98.3988 31.1215 98.6387 31.1845 98.8111 31.0624ZM99.4886 32.4745L106.113 27.8625C106.252 27.7656 106.298 27.5801 106.222 27.4242L106.075 27.1291C105.982 26.9437 105.742 26.8847 105.574 27.0027L98.9584 31.6188C98.8195 31.7157 98.7732 31.8971 98.8447 32.0487L98.9836 32.3397C99.0721 32.5336 99.312 32.5969 99.4886 32.4745ZM100.162 33.8869L106.82 29.2621C106.959 29.1652 107.009 28.9798 106.929 28.8238L106.79 28.5455C106.698 28.3601 106.462 28.3011 106.29 28.4191L99.6402 33.0479C99.5013 33.1448 99.455 33.3262 99.5265 33.4778L99.657 33.7521C99.7496 33.9416 99.9895 34.0092 100.162 33.8869ZM100.835 35.2992L107.527 30.6618C107.666 30.5649 107.716 30.3794 107.636 30.2235L107.506 29.962C107.413 29.7765 107.178 29.7175 107.005 29.8355L100.322 34.4771C100.183 34.574 100.137 34.7554 100.208 34.907L100.33 35.1642C100.423 35.3539 100.663 35.4173 100.835 35.2992ZM101.513 36.7113L108.238 32.0614C108.381 31.9645 108.427 31.779 108.348 31.6231L108.225 31.3786C108.133 31.1929 107.897 31.1339 107.725 31.252L101.008 35.9062C100.869 36.0031 100.823 36.1845 100.894 36.3361L101.008 36.5722C101.101 36.7663 101.341 36.8294 101.513 36.7113ZM102.186 38.1237L108.945 33.461C109.088 33.3641 109.135 33.1787 109.055 33.0227L108.941 32.7991C108.848 32.6137 108.613 32.5547 108.44 32.6727L101.69 37.3394C101.551 37.4366 101.505 37.6177 101.576 37.7696L101.681 37.9889C101.774 38.1784 102.014 38.2417 102.186 38.1237ZM102.864 39.536L109.656 34.8607C109.8 34.7638 109.846 34.574 109.766 34.4224L109.661 34.2158C109.568 34.0301 109.332 33.9711 109.16 34.0891L102.376 38.7686C102.237 38.8657 102.186 39.0469 102.262 39.1987L102.359 39.401C102.451 39.5907 102.687 39.6541 102.864 39.536ZM103.537 40.9481L110.368 36.2603C110.507 36.1634 110.557 35.9779 110.477 35.8261L110.376 35.6279C110.283 35.4468 110.052 35.3834 109.879 35.5015L103.058 40.1977C102.919 40.2949 102.868 40.476 102.944 40.6279L103.032 40.8133C103.125 41.0031 103.365 41.0662 103.537 40.9481ZM104.211 42.3605L111.075 37.6643C111.218 37.5671 111.264 37.3816 111.188 37.2257L111.096 37.0443C111.003 36.8589 110.768 36.7999 110.599 36.9179L103.743 41.6268C103.605 41.7238 103.554 41.9051 103.63 42.057L103.71 42.2257C103.802 42.4152 104.038 42.4785 104.211 42.3605ZM104.888 43.7726L111.786 39.0596C111.929 38.9626 111.975 38.7772 111.9 38.621L111.82 38.461C111.727 38.2753 111.491 38.2163 111.323 38.3343L104.434 43.0519C104.295 43.1488 104.244 43.3299 104.32 43.4818L104.392 43.6337C104.476 43.8275 104.716 43.8909 104.888 43.7726ZM105.562 45.1849L112.493 40.4676C112.636 40.3707 112.686 40.1809 112.606 40.025L112.539 39.8901C112.447 39.7044 112.211 39.6413 112.038 39.7594L105.115 44.4851C104.976 44.582 104.926 44.7634 104.998 44.9153L105.061 45.0501C105.153 45.2399 105.389 45.303 105.562 45.1849ZM106.239 46.6014L113.204 41.8713C113.347 41.7744 113.398 41.5849 113.318 41.4287L113.255 41.3066C113.162 41.1211 112.926 41.0621 112.754 41.1758L105.797 45.9143C105.658 46.0112 105.608 46.1926 105.679 46.3442L105.734 46.4622C105.827 46.652 106.066 46.7194 106.239 46.6014ZM106.913 48.0137L113.915 43.2669C114.059 43.1699 114.105 42.9845 114.029 42.8326L113.974 42.723C113.882 42.5416 113.65 42.4785 113.482 42.5965L106.487 47.3518C106.349 47.4487 106.298 47.6301 106.369 47.782L106.416 47.8789C106.504 48.0643 106.74 48.1317 106.913 48.0137ZM107.59 49.4261L114.585 44.696C114.715 44.6075 114.774 44.4388 114.715 44.2869C114.69 44.2239 114.664 44.1648 114.639 44.1058C114.572 43.9456 114.374 43.8909 114.231 43.9878L107.165 48.7769C107.026 48.8738 106.976 49.0549 107.047 49.2068C107.06 49.232 107.072 49.2615 107.085 49.2869C107.178 49.4767 107.413 49.5441 107.59 49.4261ZM107.312 57.0731C107.312 57.0731 114.441 52.2927 114.589 52.1958C114.732 52.0986 114.829 51.9091 114.9 51.6181C114.951 51.4075 114.711 51.264 114.53 51.3863C112.846 52.5161 107.527 56.091 107.375 56.1922C107.199 56.3102 107.089 56.424 106.967 56.7572C106.845 57.0902 107.102 57.2123 107.312 57.0731ZM77.3015 40.535L83.7996 35.9652C83.9341 35.8683 83.9845 35.6912 83.913 35.5437L83.7869 35.2697C83.6986 35.0756 83.4544 35.0082 83.2776 35.1306L76.7839 39.696C76.6493 39.7889 76.603 39.9616 76.6661 40.1135L76.7882 40.3918C76.8765 40.59 77.1247 40.6574 77.3015 40.535ZM77.9159 41.9558L84.4434 37.3776C84.578 37.2847 84.6286 37.1033 84.5569 36.9558L84.4055 36.6271C84.317 36.433 84.073 36.3656 83.8962 36.488L77.3814 41.0705C77.2468 41.1631 77.2005 41.3361 77.2636 41.4877L77.4025 41.8123C77.4911 42.0104 77.7393 42.0779 77.9159 41.9558ZM78.5305 43.3765L85.0829 38.7897C85.2178 38.6971 85.2681 38.5157 85.1967 38.3681L85.0537 38.0563C84.9652 37.8622 84.7212 37.7948 84.5444 37.9171L78.0001 42.508C77.8655 42.6006 77.8192 42.7736 77.8823 42.9252L78.0128 43.233C78.1054 43.4312 78.3496 43.4986 78.5305 43.3765ZM79.1408 44.7972L85.7227 40.202C85.8573 40.1092 85.9079 39.928 85.8405 39.7805L85.7059 39.4854C85.6174 39.2913 85.3735 39.2239 85.1967 39.3463L78.6271 43.9456C78.4926 44.0384 78.4463 44.2155 78.5094 44.363L78.6355 44.6494C78.7197 44.8476 78.964 44.9194 79.1408 44.7972ZM79.7551 46.2177L86.3666 41.6144C86.5014 41.5215 86.5518 41.3401 86.4844 41.1926L86.3582 40.9146C86.2699 40.7205 86.0257 40.653 85.8489 40.7754L79.2501 45.3831C79.1153 45.4759 79.0649 45.653 79.1324 45.8005L79.2501 46.0702C79.33 46.2684 79.5783 46.3401 79.7551 46.2177ZM80.3694 47.6385L87.0064 43.0265C87.1409 42.9339 87.1916 42.7525 87.1241 42.6006L87.0064 42.3437C86.9178 42.1496 86.6739 42.0822 86.5014 42.2045L79.8729 46.8206C79.7383 46.9135 79.6877 47.0905 79.7551 47.2381L79.8645 47.4909C79.9446 47.6891 80.1929 47.7608 80.3694 47.6385ZM80.984 49.0592L87.6502 44.4388C87.7848 44.346 87.8354 44.1648 87.768 44.013L87.6586 43.7726C87.5703 43.5787 87.3261 43.5113 87.1537 43.6337L80.4959 48.2582C80.361 48.351 80.3107 48.5281 80.3781 48.6756L80.4791 48.9117C80.5589 49.1139 80.8029 49.1816 80.984 49.0592ZM81.5943 50.48L88.2857 45.8512C88.4205 45.7583 88.4709 45.5769 88.4035 45.4253L88.3025 45.2017C88.2142 45.0079 87.97 44.9405 87.7975 45.0628L81.1102 49.6957C80.9756 49.7886 80.925 49.9656 80.9924 50.1131L81.085 50.3324C81.1733 50.5347 81.4175 50.6021 81.5943 50.48ZM82.2086 51.9007L88.9295 47.2633C89.0643 47.1707 89.1147 46.9893 89.0476 46.8374L88.955 46.6309C88.8664 46.437 88.6225 46.3696 88.4497 46.4917L81.7373 51.1332C81.6027 51.2261 81.5521 51.4031 81.6195 51.5507L81.7078 51.7488C81.7879 51.9554 82.0318 52.0228 82.2086 51.9007ZM82.823 53.3212L89.5736 48.6756C89.7123 48.5828 89.7586 48.4016 89.6914 48.2498L89.6072 48.06C89.5187 47.8662 89.2788 47.7987 89.1022 47.9209L82.3603 52.5708C82.2254 52.6636 82.1751 52.8407 82.2382 52.9882L82.318 53.1696C82.4022 53.3762 82.6464 53.4436 82.823 53.3212ZM83.4376 54.7463L90.2132 50.0964C90.352 50.0035 90.3984 49.8221 90.3309 49.6705L90.2554 49.4975C90.1669 49.3037 89.927 49.2363 89.7502 49.3586L82.9789 54.017C82.8441 54.1096 82.7937 54.2866 82.8568 54.4341L82.9283 54.5987C83.0166 54.7969 83.2608 54.8684 83.4376 54.7463ZM84.0479 56.1668L90.857 51.5044C90.9959 51.4115 91.0465 51.2304 90.975 51.0785L90.9033 50.9267C90.815 50.7328 90.5751 50.6654 90.3983 50.7875L83.5973 55.4545C83.4628 55.5471 83.4124 55.7201 83.4796 55.8676L83.547 56.0192C83.6312 56.2174 83.8711 56.2891 84.0479 56.1668ZM84.6622 57.5918L91.5011 52.9208C91.6398 52.828 91.6904 52.6468 91.6189 52.495L91.5558 52.3601C91.4673 52.1663 91.2274 52.0986 91.0506 52.221L84.2203 56.8961C84.0858 56.9889 84.0351 57.1619 84.1025 57.3135L84.1613 57.4484C84.2455 57.6425 84.4854 57.7099 84.6622 57.5918ZM85.2765 59.0126L92.1406 54.3332C92.2795 54.2403 92.3302 54.0589 92.2584 53.9073L92.2037 53.7893C92.1154 53.5954 91.8756 53.5278 91.6988 53.6458L84.839 58.3296C84.7042 58.4224 84.6538 58.5951 84.7169 58.747L84.7675 58.865C84.8558 59.0632 85.1 59.1306 85.2765 59.0126ZM85.8952 60.429L92.7845 55.7453C92.9234 55.6527 92.974 55.4713 92.9025 55.3194L92.8562 55.2184C92.7677 55.0243 92.5278 54.9569 92.351 55.0749L85.4661 59.7671C85.3312 59.8599 85.2765 60.037 85.3439 60.1886L85.3819 60.2771C85.4701 60.4796 85.7143 60.5511 85.8952 60.429ZM86.5098 61.8538L93.4243 57.1617C93.5632 57.0691 93.6135 56.8877 93.542 56.7361L93.5041 56.6516C93.4159 56.4578 93.176 56.3904 92.9992 56.5084L86.0888 61.209C85.9542 61.3015 85.8995 61.4786 85.9669 61.6305L85.9962 61.7022C86.0847 61.9004 86.3287 61.9719 86.5098 61.8538ZM87.1285 63.2702L94.0724 58.574C94.2113 58.4814 94.2617 58.2957 94.1902 58.1441C94.1818 58.123 94.1691 58.1019 94.1607 58.0808C94.0724 57.891 93.8326 57.8236 93.6598 57.9416L86.7202 62.6465C86.5813 62.7391 86.5307 62.9248 86.5981 63.0764L86.6233 63.127C86.7118 63.3209 86.9517 63.3883 87.1285 63.2702ZM87.8354 64.632L94.9646 59.8177C95.0824 59.7376 95.1075 59.5733 95.0193 59.4636C94.9857 59.4214 94.9519 59.3792 94.9183 59.3372C94.8089 59.198 94.6069 59.1642 94.4596 59.2654C93.2813 60.0622 88.597 63.2323 87.4271 64.025C87.2758 64.1263 87.2295 64.3285 87.3221 64.4844C87.3305 64.4971 87.3388 64.5139 87.3472 64.5267C87.4526 64.6953 87.6713 64.7375 87.8354 64.632ZM88.7151 65.8713L96.1134 60.8884C96.2523 60.7958 96.2566 60.5933 96.1177 60.4964C96.0714 60.4626 96.0294 60.429 95.9831 60.3952C95.8651 60.3026 95.701 60.2942 95.5789 60.3784L88.3152 65.2812C88.1552 65.3867 88.1132 65.6101 88.2226 65.766C88.3615 65.9558 88.5635 65.9769 88.7151 65.8713ZM89.9186 66.8958C90.1669 66.7273 96.0378 62.7856 97.6832 61.6811C97.8516 61.5671 97.8096 61.3186 97.6201 61.2552C97.5527 61.2341 97.4896 61.209 97.4224 61.1835C97.3171 61.1456 97.2034 61.154 97.1108 61.2173C96.0503 61.9299 89.5736 66.2931 89.4177 66.3984C89.2536 66.5121 89.1948 66.7273 89.3546 66.8958C89.5187 67.0644 89.6955 67.0476 89.9186 66.8958ZM91.3116 67.8021C91.4126 67.7347 99.7117 62.17 99.977 61.9889C100.242 61.8118 100.082 61.6432 99.8549 61.6389C99.4339 61.6261 99.1772 61.7022 98.9963 61.8243C98.9205 61.8749 90.8486 67.3005 90.8486 67.3005C90.6845 67.4101 90.5879 67.6126 90.7603 67.7726C90.9371 67.9288 91.1686 67.895 91.3116 67.8021ZM113.633 54.7084C113.873 54.5481 113.949 54.3372 114.046 54.1391C114.147 53.9241 113.886 53.7175 113.692 53.8483L92.713 67.9118C92.5446 68.0257 92.4268 68.2196 92.6331 68.3798C92.8392 68.5401 93.0707 68.46 93.2139 68.3671C93.2938 68.3124 113.394 54.8684 113.633 54.7084ZM95.8188 68.464C95.8821 68.4221 110.831 58.4476 111.55 57.9671C112.27 57.4865 112.514 57.1113 112.623 56.9215C112.737 56.7361 112.514 56.5252 112.333 56.6476L95.0783 68.1944C94.9056 68.3081 94.9183 68.5106 95.137 68.578C95.3561 68.6411 95.6758 68.561 95.8188 68.464ZM108.259 62.0225C109.046 61.4997 109.349 61.1794 109.572 60.9434C109.8 60.7073 109.669 60.3237 109.185 60.6396C108.701 60.9518 99.8758 66.8454 99.6107 67.0181C99.3456 67.1952 99.2866 67.4228 99.4972 67.4819C99.7076 67.5409 100.297 67.3216 100.802 66.9845C101.189 66.7273 107.472 62.5452 108.259 62.0225ZM68.1691 58.5361C69.3265 61.4155 69.0404 63.4771 67.34 64.6447C67.34 64.6447 61.1117 68.911 60.6695 69.2104C60.2277 69.5139 59.3862 69.476 59.1 68.7128C58.8138 67.9497 56.5032 61.7569 56.5032 61.7569C56.3348 61.3059 56.4948 60.7999 56.8863 60.5303L63.8974 55.6527C64.4825 55.2479 65.0676 55.1299 65.64 55.3026C66.309 55.5051 67.2139 56.1543 68.1691 58.5361ZM58.6706 62.385L65.7873 57.4359C65.9262 57.339 66.0648 57.2589 66.2037 57.1955C66.41 57.1027 66.469 56.8371 66.3258 56.6643C65.9809 56.2512 65.6736 56.0615 65.4337 55.994C64.9623 55.8633 64.6003 56.0487 64.3141 56.2469L57.3027 61.1204C57.1809 61.2046 57.1091 61.3606 57.1849 61.4997C57.2567 61.6261 57.4627 61.6345 57.6016 61.546C57.7405 61.4575 61.3808 59.0968 61.8102 59.08C61.6123 59.4847 58.3424 61.9299 58.3424 61.9299C58.2203 62.0141 58.1361 62.2079 58.2414 62.3598C58.3256 62.4906 58.4938 62.5073 58.6706 62.385ZM67.4957 58.8017C67.3695 58.4855 67.2434 58.2072 67.1213 57.9543C67.0539 57.8152 66.8982 57.731 66.7509 57.7646C66.5741 57.8068 66.3889 57.8953 66.1996 58.0301L59.1882 62.9037C59.0661 62.9879 59.0198 63.1438 59.0705 63.283L60.7413 67.7642C60.8168 67.9708 61.0694 68.0509 61.2546 67.9288L66.9277 64.0418C68.3334 63.0807 68.5184 61.369 67.4957 58.8017Z" fill="#EBB86B"/>
</g>
<path d="M72.5015 143.728C111.84 143.728 143.73 111.838 143.73 72.4996C143.73 33.1614 111.84 1.27148 72.5015 1.27148C33.1633 1.27148 1.27344 33.1614 1.27344 72.4996C1.27344 111.838 33.1633 143.728 72.5015 143.728Z" stroke="#EBB86B" stroke-width="2.54386"/>
</g>
<defs>
<clipPath id="clip0_464_161">
<rect width="145" height="145" fill="white"/>
</clipPath>
</defs>
</svg>
